<svg fill="none" version="1.1" viewBox="0 0 1160 800" xmlns="http://www.w3.org/2000/svg">
 <path d="M1160 0H0V800H1160V0Z" fill="#fff"/>
 <path d="m803.15 411.56h297.85c3.71 0 7.27 1.475 9.9 4.1 2.63 2.626 4.1 6.187 4.1 9.9v316.05c0 3.713-1.47 7.274-4.1 9.899-2.63 2.626-6.19 4.101-9.9 4.101h-302c-3.713 0-7.274-1.475-9.899-4.101-2.626-2.625-4.101-6.186-4.101-9.899v-311.89c0-4.815 1.912-9.433 5.315-12.838 3.404-3.405 8.02-5.32 12.835-5.322z" fill="#FEB8A5"/>
 <path d="m803.15 45.41h297.85c3.71 0 7.27 1.475 9.9 4.1005s4.1 6.1864 4.1 9.8995v316.06c0 3.713-1.47 7.274-4.1 9.9-2.63 2.625-6.19 4.1-9.9 4.1h-302c-3.713 0-7.274-1.475-9.899-4.1-2.626-2.626-4.101-6.187-4.101-9.9v-311.9c0-4.8146 1.912-9.4322 5.315-12.838 3.404-3.4053 8.02-5.3198 12.835-5.3224z" fill="#FEB8A5"/>
 <path d="m748.88 45.41h-689.28c-7.732 0-14 6.268-14 14v681.17c0 7.732 6.268 14 14 14h689.28c7.732 0 14-6.268 14-14v-681.17c0-7.732-6.268-14-14-14z" fill="#2970FF"/>
 <path d="m1020.7 222.9c0.01-17.326-6.48-34.025-18.2-46.786-11.723-12.761-27.81-20.653-45.075-22.112-17.265-1.458-34.447 3.624-48.141 14.238-13.695 10.615-22.901 25.987-25.794 43.07l-23 35.721c-0.712 1.039-1.126 2.253-1.199 3.511s0.2 2.511 0.787 3.626c0.588 1.114 1.469 2.047 2.547 2.698 1.079 0.651 2.315 0.995 3.575 0.994h16.43v34.401c0 3.047 1.211 5.969 3.365 8.124 2.155 2.155 5.078 3.365 8.125 3.365h23v27.62c0 1.83 0.727 3.586 2.021 4.88s3.049 2.02 4.879 2.02h55.24c1.83 0 3.585-0.726 4.879-2.02s2.021-3.05 2.021-4.88v-48.639c10.503-6.063 19.22-14.784 25.29-25.287 6.06-10.503 9.25-22.416 9.25-34.544z" fill="#ED6D47"/>
 <g fill="#091440">
  <path d="m888.79 106.8c-1.076 1.045-1.693 2.475-1.716 3.975-0.022 1.5 0.552 2.948 1.596 4.025l26.33 26.29c1.079 1.078 2.543 1.683 4.069 1.682 1.525-1e-3 2.988-0.608 4.066-1.687 1.078-1.08 1.683-2.543 1.682-4.069-1e-3 -1.525-0.608-2.988-1.687-4.066l-26.27-26.27c-0.524-0.524-1.148-0.936-1.836-1.211-0.687-0.275-1.424-0.407-2.164-0.389-1.505 0.035-2.939 0.651-4 1.72h-0.07z"/>
  <path d="m951.35 75.841c-0.745-0.0119-1.484 0.123-2.177 0.3969-0.692 0.274-1.324 0.6818-1.859 1.1999-0.535 0.5182-0.962 1.1367-1.258 1.8201s-0.454 1.4184-0.466 2.1631v37.17c0.062 1.484 0.695 2.888 1.768 3.917 1.072 1.028 2.501 1.603 3.987 1.603s2.915-0.575 3.987-1.603c1.073-1.029 1.706-2.433 1.768-3.917v-37.17c0-0.7361-0.149-1.4646-0.438-2.1416-0.288-0.6771-0.711-1.2888-1.242-1.7984-1.093-1.0541-2.552-1.6422-4.07-1.64z"/>
  <path d="m1013.9 106.8c-1.05-1.076-2.48-1.693-3.98-1.715-1.5-0.023-2.94 0.551-4.02 1.595l-26.3 26.32c-1.013 1.093-1.563 2.536-1.534 4.025 0.028 1.49 0.632 2.91 1.686 3.964 1.053 1.053 2.474 1.658 3.963 1.686 1.49 0.028 2.932-0.522 4.025-1.535l26.25-26.33c0.52-0.525 0.93-1.15 1.21-1.837 0.27-0.687 0.4-1.423 0.39-2.163-0.04-1.505-0.65-2.938-1.72-4l0.03-0.01z"/>
 </g>
 <path d="m572.18 287.7v-86.59h-325v400h325v-313.41z" fill="#fff"/>
 <g fill="#091440">
  <path d="m522.18 376.29h-175v25h175v-25z"/>
  <path d="m424.06 301.29h-122.77v25h122.77v-25z"/>
  <path d="m424.06 251.41h-122.77v25h122.77v-25z"/>
  <path d="m522.18 451.29h-175v25h175v-25z"/>
  <path d="m522.18 526.29h-175v25h175v-25z"/>
  <path d="m322.18 376.29h-25v25h25v-25z"/>
  <path d="m322.18 451.29h-25v25h25v-25z"/>
  <path d="m322.18 526.29h-25v25h25v-25z"/>
 </g>
 <path d="m484.37 326.07c20.744 0 37.56-16.816 37.56-37.56s-16.816-37.56-37.56-37.56-37.56 16.816-37.56 37.56 16.816 37.56 37.56 37.56z" fill="#2970FF"/>
 <path d="m1064.2 497.61h-230.38v158.51h230.38v-158.51z" fill="#ED6D47"/>
 <path d="m1064.2 512.02h-230.38v172.92h230.38v-172.92z" fill="#fff"/>
 <g fill="#ED6D47">
  <path d="m884.18 483.2h-14.41v43.23h14.41v-43.23z"/>
  <path d="m1028.3 483.2h-14.41v43.23h14.41v-43.23z"/>
  <path d="m992.26 483.2h-14.41v43.23h14.41v-43.23z"/>
  <path d="m920.21 483.2h-14.41v43.23h14.41v-43.23z"/>
  <path d="m1064.2 540.84h-230.38v14.41h230.38v-14.41z"/>
 </g>
 <g fill="#091440">
  <path d="m884.18 612.89h-14.41v14.41h14.41v-14.41z"/>
  <path d="m913 612.89h-14.41v14.41h14.41v-14.41z"/>
  <path d="m941.82 612.89h-14.41v14.41h14.41v-14.41z"/>
  <path d="m970.64 612.89h-14.41v14.41h14.41v-14.41z"/>
  <path d="m999.46 612.89h-14.41v14.41h14.41v-14.41z"/>
  <path d="m1028.3 612.89h-14.41v14.41h14.41v-14.41z"/>
  <path d="m884.18 584.07h-14.41v14.41h14.41v-14.41z"/>
  <path d="M913 584.07H898.59V598.48H913V584.07Z"/>
  <path d="m941.82 584.07h-14.41v14.41h14.41v-14.41z"/>
  <path d="m970.64 584.07h-14.41v14.41h14.41v-14.41z"/>
  <path d="m999.46 584.07h-14.41v14.41h14.41v-14.41z"/>
  <path d="m1028.3 584.07h-14.41v14.41h14.41v-14.41z"/>
  <path d="m884.18 641.71h-14.41v14.41h14.41v-14.41z"/>
  <path d="m913 641.71h-14.41v14.41h14.41v-14.41z"/>
  <path d="m941.82 641.71h-14.41v14.41h14.41v-14.41z"/>
  <path d="m970.64 641.71h-14.41v14.41h14.41v-14.41z"/>
  <path d="m999.46 641.71h-14.41v14.41h14.41v-14.41z"/>
 </g>
 <path d="m1033.9 636.12h-25.6v25.6h25.6v-25.6z" fill="#ED6D47"/>
 <path d="m1028.3 641.71h-14.41v14.41h14.41v-14.41z" fill="#091440"/>
 <g id="FAVOCONS" transform="matrix(.56305 0 0 .56305 466.54 267.39)">
  <polygon points="35.56 38.38 61 68.56 63.34 66.6 37.56 36 63.34 5.4 61 3.44 35.56 33.62 33.57 36" fill="#c1272d"/>
  <polygon points="58.99 1.96 56.65 0 28.31 33.62 2.34 2.67 0 4.64 26.32 36 0 67.36 2.34 69.33 28.31 38.38 56.65 72 58.99 70.04 30.3 36" fill="#fff"/>
 </g>
</svg>
