<svg version="1.1" viewBox="0 0 1160 800" xmlns="http://www.w3.org/2000/svg">
 <defs>
  <style>.cls-1{fill:#fff;}.cls-2{fill:#091440;}.cls-3{fill:#ffc84e;}.cls-4{fill:#2dd8a3;}.cls-5{fill:#c4cbd2;}.cls-6{fill:none;}.cls-7{fill:#ffe4a7;}</style>
 </defs>
 <g>
  <g id="s1_-_f6_-_ending">
   <rect class="cls-1" width="1160" height="800"/>
   <g id="bg">
    <rect class="cls-2" x="45.06" y="218.51" width="726.55" height="536.18" rx="12.23"/>
    <rect class="cls-3" transform="translate(1899.9 973.51) rotate(180)" x="784.94" y="218.51" width="330" height="536.49" rx="12.17"/>
   </g>
   <rect class="cls-4" x="45" y="45.41" width="960" height="160" rx="14"/>
   <path class="cls-2" d="m65.63 137.59 5.4-6.11a8.69 8.69 0 0 0 5.76 2.63c4.08 0 7.08-3 7.08-12.11 0-9.48-2.94-11.4-5.28-11.4-2.16 0-4.08 1.26-4.08 5.28 0 3.66 2 4.56 4.2 4.56 1.8 0 3.66-1 5-3.6l0.48 6.48a10.13 10.13 0 0 1-7.56 4.32c-6.48 0-11.52-3.6-11.52-11.76s6-13 13.2-13 14.92 5.32 14.92 19.12-7.56 20.39-15.72 20.39a16.51 16.51 0 0 1-11.88-4.8z"/>
   <path class="cls-2" d="m97.43 123.32c0-13.8 7.56-20.4 15.72-20.4a16.51 16.51 0 0 1 11.88 4.8l-5.4 6.12a8.65 8.65 0 0 0-5.76-2.64c-4 0-7.08 3-7.08 12.12 0 9.47 2.94 11.39 5.28 11.39 2.16 0 4.08-1.26 4.08-5.28 0-3.65-2-4.55-4.2-4.55-1.8 0-3.66 1-5 3.6l-0.48-6.48a10.13 10.13 0 0 1 7.56-4.32c6.48 0 11.52 3.6 11.52 11.75s-6 13-13.2 13-14.92-5.32-14.92-19.11z"/>
   <path class="cls-2" d="m129.19 128c0-3.9 2.16-6.18 5-6.18s5 2.28 5 6.18-2.16 6.23-5 6.23-5-2.34-5-6.23zm6.54 0c0-2.64-0.72-3.36-1.5-3.36s-1.5 0.72-1.5 3.36 0.72 3.41 1.5 3.41 1.5-0.78 1.5-3.41zm9.66-6.18h2.88l-10.44 20.18h-2.83zm-1.5 14c0-3.9 2.16-6.18 5-6.18s5 2.28 5 6.18-2.16 6.24-5 6.24-5-2.37-5-6.27zm6.54 0c0-2.64-0.72-3.36-1.5-3.36s-1.5 0.72-1.5 3.36 0.72 3.42 1.5 3.42 1.5-0.81 1.5-3.45z"/>
   <path class="cls-5" d="m1095.3 45.41h-53.66c-10.87 0-19.67 6.27-19.67 14v132c0 7.74 8.8 14 19.67 14h53.66c10.87 0 19.67-6.26 19.67-14v-132c0.05-7.73-8.8-14-19.67-14z"/>
   <g id="scale">
    <path class="cls-5" d="M408.33,610.64,500.44,755H316.23Z"/>
    <path class="cls-1" d="m196.89 558.77 432.53 76.23-2.51 14.26-432.54-76.26a7.24 7.24 0 0 1-5.87-8.39 7.24 7.24 0 0 1 8.39-5.84z"/>
   </g>
   <polygon class="cls-1" points="843.27 480.35 869.94 493.69 869.94 480.35 856.61 473.69 869.94 467.02 869.94 453.69 843.27 467.02"/>
   <polygon class="cls-1" points="1029.9 547.02 1043.3 553.68 1029.9 560.35 1029.9 573.68 1056.6 560.35 1056.6 547.02 1029.9 533.68"/>
   <rect class="cls-2" x="883.27" y="547.02" width="133.33" height="13.33"/>
   <rect class="cls-2" x="883.27" y="520.35" width="55.47" height="13.33"/>
   <rect class="cls-2" x="949.94" y="520.35" width="66.67" height="13.33"/>
   <rect class="cls-2" x="883.27" y="493.69" width="133.33" height="13.33"/>
   <polygon class="cls-1" points="843.27 427.02 869.94 440.35 869.94 427.02 856.61 420.35 869.94 413.68 869.94 400.35 843.27 413.68"/>
   <polygon class="cls-1" points="1029.9 440.35 1043.3 447.02 1029.9 453.69 1029.9 467.02 1056.6 453.69 1056.6 440.35 1029.9 427.02"/>
   <rect class="cls-2" x="883.27" y="413.69" width="133.33" height="13.33"/>
   <rect class="cls-2" x="883.27" y="440.35" width="133.33" height="13.33"/>
   <rect class="cls-2" x="883.27" y="467.02" width="66.67" height="13.33"/>
   <rect class="cls-2" x="961.14" y="467.02" width="55.47" height="13.33"/>
   <rect class="cls-6" x="829.94" y="366.75" width="240" height="240"/>
   <g id="checkmark">
    <path id="Small_circle" class="cls-1" d="M525,172.08a46.67,46.67,0,1,0-46.67-46.67A46.67,46.67,0,0,0,525,172.08Z"/>
    <path class="cls-2" d="m545.65 107.6-24.78 24.78-16.52-16.52-8.26 8.26 24.78 24.78 33-33z"/>
   </g>
   <path class="cls-3" d="m419.4 286.09v268.64h-21.59c-56.63 0-102.54-60.14-102.54-134.32s45.91-134.32 102.54-134.32z"/>
   <path class="cls-7" d="M302.59,467.18c.92,3.26,2,6.45,3.07,9.59H420.31v-9.59Z"/>
   <path class="cls-7" d="m312.75 493.56q2.46 4.95 5.24 9.6h102.32v-9.6z"/>
   <path class="cls-7" d="M297.36,440.79c.38,3.25.87,6.44,1.42,9.6H420.31v-9.6Z"/>
   <path class="cls-7" d="M329.88,520a115.34,115.34,0,0,0,9.11,9.59h81.32V520Z"/>
   <path class="cls-7" d="m420.31 549.93v-9.6h-67.75a88.62 88.62 0 0 0 19 9.6z"/>
   <path class="cls-7" d="M299.21,388c-.6,3.15-1.1,6.35-1.52,9.59H420.31V388Z"/>
   <path class="cls-7" d="M296.3,414.41c-.06,2-.11,4-.11,6,0,1.2,0,2.39.07,3.59H420.31v-9.59Z"/>
   <path class="cls-7" d="m379.48 288.48a85.56 85.56 0 0 0-23.09 9.6h63.92v-9.6z"/>
   <path class="cls-7" d="m341.58 308.87a112.73 112.73 0 0 0-9.58 9.6h88.31v-9.6z"/>
   <path class="cls-7" d="m319.43 335.26q-2.9 4.62-5.48 9.59h106.36v-9.59z"/>
   <path class="cls-7" d="m306.51 361.64c-1.17 3.13-2.22 6.34-3.2 9.59h117v-9.59z"/>
   <ellipse class="cls-3" cx="420" cy="420.41" rx="102.54" ry="134.32"/>
   <ellipse class="cls-1" cx="420" cy="420.41" rx="79.75" ry="111.53"/>
   <g id="FAVOCONS" transform="matrix(1.3021 0 0 1.3021 382.54 370.43)">
    <polygon points="61 3.44 35.56 33.62 33.57 36 35.56 38.38 61 68.56 63.34 66.6 37.56 36 63.34 5.4" fill="#c1272d"/>
    <polygon points="56.65 72 58.99 70.04 30.3 36 58.99 1.96 56.65 0 28.31 33.62 2.34 2.67 0 4.64 26.32 36 0 67.36 2.34 69.33 28.31 38.38" fill="#1a1a1a"/>
   </g>
  </g>
 </g>
</svg>
