<svg fill="none" version="1.1" viewBox="0 0 92 92" xmlns="http://www.w3.org/2000/svg">
 <rect width="92" height="92" fill="#2970FF"/>
 <path d="m48.415 15.023v61.497h-4.9418c-12.972 0-23.473-13.773-23.473-30.749 0-16.976 10.501-30.748 23.473-30.748h4.9418z" fill="#fff"/>
 <g fill="#C4CBD2">
  <path d="m23.797 62.496c0.366 0.755 0.7778 1.4871 1.1896 2.1963h23.428v-2.1963h-24.617z"/>
  <path d="m21.487 56.456c0.2059 0.755 0.4347 1.4871 0.7092 2.1963h26.242v-2.1963h-26.951z"/>
  <path d="m20.274 50.416c0.0915 0.7322 0.1831 1.4643 0.3203 2.1964h27.82v-2.1964h-28.14z"/>
  <path d="m48.415 75.399v-2.1963h-15.512c1.3727 0.9151 2.8369 1.6473 4.3469 2.1963h11.165z"/>
  <path d="m27.733 68.535c0.6634 0.7778 1.3498 1.51 2.0819 2.1963h18.623v-2.1963h-20.705z"/>
  <path d="m22.379 32.319c-0.2745 0.7092-0.5033 1.4413-0.7321 2.1963h26.791v-2.1963h-26.058z"/>
  <path d="m39.057 15.572c-1.8532 0.4575-3.6148 1.2125-5.2849 2.1963h14.642v-2.1963h-9.3572z"/>
  <path d="m30.41 20.239c-0.7779 0.6863-1.51 1.4184-2.1964 2.1963h20.224v-2.1963h-18.028z"/>
  <path d="m20.709 38.336c-0.1373 0.7321-0.2517 1.4642-0.3432 2.1963h28.072v-2.1963h-27.729z"/>
  <path d="m25.331 26.279c-0.4347 0.7092-0.8694 1.4413-1.2583 2.1963h24.343v-2.1963h-23.084z"/>
  <path d="m20.046 44.376c-0.0228 0.4576-0.0229 0.9152-0.0229 1.3727v0.8237h28.392v-2.1964h-28.369z"/>
 </g>
 <path d="m48.552 76.497c12.964 0 23.473-13.767 23.473-30.748 0-16.982-10.509-30.749-23.473-30.749-12.964 0-23.473 13.767-23.473 30.749 0 16.982 10.509 30.748 23.473 30.748z" fill="#fff"/>
 <g id="FAVOCONS" transform="matrix(.35809 0 0 .35809 37.211 32.87)">
  <polygon points="63.34 5.4 61 3.44 35.56 33.62 33.57 36 35.56 38.38 61 68.56 63.34 66.6 37.56 36" fill="#c1272d"/>
  <polygon points="28.31 38.38 56.65 72 58.99 70.04 30.3 36 58.99 1.96 56.65 0 28.31 33.62 2.34 2.67 0 4.64 26.32 36 0 67.36 2.34 69.33" fill="#1a1a1a"/>
 </g>
</svg>
