<svg version="1.1" viewBox="0 0 1160 800" xmlns="http://www.w3.org/2000/svg">
 <path d="M1160 0H0V800H1160V0Z" fill="#fff"/>
 <path d="m1100.8 45.21h-678.93c-7.66 0-13.87 6.2098-13.87 13.87v681.85c0 7.66 6.21 13.87 13.87 13.87h678.93c7.66 0 13.87-6.21 13.87-13.87v-681.85c0-7.6602-6.21-13.87-13.87-13.87z" fill="#091440"/>
 <path d="m780.09 171.8v478.78h-38.47c-100.93 0-182.75-107.18-182.75-239.39s81.82-239.39 182.75-239.39h38.47z" fill="#FFC84E"/>
 <path d="m781.16 650.58c100.93 0 182.75-107.18 182.75-239.39 0-132.21-81.82-239.39-182.75-239.39s-182.75 107.18-182.75 239.39c0 132.21 81.82 239.39 182.75 239.39z" fill="#FFC84E"/>
 <path d="m781.16 609.97c78.502 0 142.14-88.997 142.14-198.78s-63.638-198.78-142.14-198.78c-78.501 0-142.14 88.997-142.14 198.78s63.638 198.78 142.14 198.78z" fill="#fff"/>
 <path d="m381.4 228.17h-329.41c-3.6782 0-6.66 2.982-6.66 6.66v324.25c0 3.678 2.9818 6.66 6.66 6.66h329.41c3.678 0 6.66-2.982 6.66-6.66v-324.25c0-3.678-2.982-6.66-6.66-6.66z" fill="#FFC84E"/>
 <path d="m231.35 454.65 77.58-13.65-4.82-27.33c-8.204 1.334-16.603-0.616-23.38-5.427s-11.388-12.098-12.833-20.282c-1.446-8.185 0.389-16.61 5.107-23.452 4.719-6.842 11.941-11.552 20.106-13.109l-4.82-27.32-56.77 10-0.17 120.57z" fill="#fff"/>
 <path d="m202 339.27-77.56 13.67 4.82 27.33c8.204-1.334 16.603 0.615 23.38 5.427 6.777 4.811 11.388 12.097 12.833 20.282 1.446 8.185-0.389 16.61-5.107 23.452-4.719 6.842-11.941 11.551-20.106 13.109l4.82 27.32 56.75-10 0.17-120.59z" fill="#fff"/>
 <g fill="#091440">
  <path d="m202 364.66c-6.183 2.821-11.426 7.359-15.106 13.072-3.679 5.714-5.641 12.365-5.652 19.161-0.01 6.796 1.931 13.453 5.593 19.178s8.891 10.279 15.065 13.119l0.1-64.53z"/>
  <path d="m251.63 390.79c-0.994-5.653-3.346-10.981-6.854-15.524s-8.068-8.166-13.286-10.556l-0.1 64.55c7.161-3.261 13.035-8.81 16.699-15.774 3.663-6.963 4.909-14.947 3.541-22.696z"/>
  <path d="m211.99 456.5-0.056 35.69 9.49 0.014 0.056-35.69-9.49-0.014z"/>
  <path d="m212 402.93-0.056 35.69 9.49 0.015 0.056-35.69-9.49-0.015z"/>
  <path d="m211.99 349.38-0.056 35.69 9.49 0.015 0.056-35.69-9.49-0.015z"/>
  <path d="m212 295.82-0.056 35.69 9.49 0.015 0.056-35.69-9.49-0.015z"/>
 </g>
 <polygon transform="matrix(2.7518 0 0 2.7518 696.71 312.12)" points="35.56 33.62 33.57 36 35.56 38.38 61 68.56 63.34 66.6 37.56 36 63.34 5.4 61 3.44" fill="#c1272d"/>
 <polygon transform="matrix(2.7518 0 0 2.7518 696.71 312.12)" points="58.99 70.04 30.3 36 58.99 1.96 56.65 0 28.31 33.62 2.34 2.67 0 4.64 26.32 36 0 67.36 2.34 69.33 28.31 38.38 56.65 72" fill="#1a1a1a"/>
</svg>
