<svg fill="none" version="1.1" viewBox="0 0 1160 800" xmlns="http://www.w3.org/2000/svg">
 <path d="M1160 0H0V800H1160V0Z" fill="#fff"/>
 <path d="m1100.7 44.98h-1041.3c-7.732 0-14 6.268-14 14v681.45c0 7.732 6.268 14 14 14h1041.3c7.73 0 14-6.268 14-14v-681.45c0-7.732-6.27-14-14-14z" fill="#C4CBD2"/>
 <path d="m330.52 617.43 62.54-93.42h435.55l-62.53 93.2-435.56 0.22z" fill="#091440"/>
 <path d="m590.52 279.57v320h-25.72c-67.45 0-122.14-71.64-122.14-160s54.69-160 122.14-160h25.72z" fill="#FFC84E"/>
 <path d="m591.23 599.57c67.456 0 122.14-71.634 122.14-160 0-88.365-54.684-160-122.14-160s-122.14 71.635-122.14 160c0 88.366 54.684 160 122.14 160z" fill="#FFC84E"/>
 <path d="m591.23 572.43c52.467 0 95-59.483 95-132.86s-42.533-132.86-95-132.86-95 59.483-95 132.86 42.533 132.86 95 132.86z" fill="#fff"/>
 <path d="m751.07 570.05h-374.48v39.51h374.48v-39.51z" fill="#091440"/>
 <g id="FAVOCONS" transform="matrix(1.6653 0 0 1.6653 543.38 375.66)">
  <polygon points="35.56 33.62 33.57 36 35.56 38.38 61 68.56 63.34 66.6 37.56 36 63.34 5.4 61 3.44" fill="#c1272d"/>
  <polygon points="58.99 70.04 30.3 36 58.99 1.96 56.65 0 28.31 33.62 2.34 2.67 0 4.64 26.32 36 0 67.36 2.34 69.33 28.31 38.38 56.65 72" fill="#1a1a1a"/>
 </g>
</svg>
