<svg version="1.1" viewBox="0 0 1160 800" xmlns="http://www.w3.org/2000/svg">
 <path d="M1160 0H0V800H1160V0Z" fill="#fff"/>
 <path d="m559.8 166.53h-504c-5.6333 0-10.2 4.567-10.2 10.2v496.11c0 5.634 4.5667 10.2 10.2 10.2h504c5.633 0 10.2-4.566 10.2-10.2v-496.11c0-5.633-4.567-10.2-10.2-10.2z" fill="#FFC84E"/>
 <path d="m330.23 513.06 118.7-20.93-7.37-41.81c-12.626 2.21-25.613-0.681-36.108-8.04-10.495-7.358-17.641-18.582-19.867-31.205-2.226-12.624 0.65-25.614 7.995-36.119 7.345-10.504 18.56-17.664 31.18-19.906l-7.37-41.81-86.87 15.32-0.29 184.5z" fill="#fff"/>
 <path d="m285.34 336.52-118.67 20.93 7.37 41.8c12.635-2.228 25.637 0.654 36.147 8.013 10.509 7.359 17.665 18.592 19.893 31.227 2.228 12.634-0.655 25.637-8.014 36.146-7.359 10.51-18.591 17.666-31.226 19.894l7.37 41.81 86.84-15.34 0.29-184.48z" fill="#fff"/>
 <g fill="#091440">
  <path d="m285.28 375.37c-9.462 4.316-17.486 11.258-23.118 20.002-5.631 8.743-8.633 18.92-8.649 29.32s2.955 20.586 8.56 29.347c5.605 8.76 13.608 15.727 23.058 20.071l0.149-98.74z"/>
  <path d="m361.27 415.36c-1.523-8.65-5.124-16.801-10.492-23.752-5.369-6.952-12.344-12.497-20.328-16.158l-0.16 98.77c10.957-4.99 19.945-13.48 25.553-24.134 5.607-10.654 7.516-22.869 5.427-34.726z"/>
  <path d="m300.62 515.89-0.086 54.6 14.52 0.023 0.086-54.6-14.52-0.023z"/>
  <path d="m300.61 433.94-0.085 54.6 14.519 0.023 0.086-54.6-14.52-0.023z"/>
  <path d="m300.62 352-0.086 54.6 14.52 0.023 0.086-54.6-14.52-0.023z"/>
  <path d="m300.62 270.04-0.086 54.6 14.52 0.023 0.086-54.6-14.52-0.023z"/>
 </g>
 <path d="m1110.9 755.41h-133.58c-1.087 0-2.13-0.432-2.899-1.201s-1.201-1.811-1.201-2.899v-138.26c0-1.562 0.62-3.06 1.725-4.165 1.105-1.104 2.603-1.725 4.165-1.725h131.79c1.09 0 2.13 0.432 2.9 1.201s1.2 1.812 1.2 2.899v140c0 1.088-0.43 2.13-1.2 2.899s-1.81 1.201-2.9 1.201v0.05z" fill="#FFC84E"/>
 <path d="m1044.1 688.92v-38.19c-7.55 0-14.94 2.24-21.22 6.437-6.28 4.196-11.17 10.16-14.06 17.139-2.89 6.978-3.65 14.657-2.18 22.065 1.48 7.408 5.11 14.213 10.46 19.554 5.34 5.341 12.14 8.978 19.55 10.452 7.41 1.473 15.09 0.717 22.06-2.174 6.98-2.89 12.95-7.785 17.14-14.065 4.2-6.281 6.44-13.664 6.44-21.218h-38.19z" fill="#091440"/>
 <path d="m1047.9 635.59v-7.77h11.46v-7.64h-30.55v7.64h11.45v7.77c-13.82 0.989-26.71 7.301-35.96 17.605-9.256 10.304-14.151 23.798-13.656 37.639 0.495 13.842 6.341 26.951 16.306 36.568 9.97 9.617 23.28 14.991 37.13 14.991s27.16-5.374 37.13-14.991c9.96-9.617 15.81-22.726 16.31-36.568 0.49-13.841-4.4-27.335-13.66-37.639-9.25-10.304-22.15-16.616-35.96-17.605zm-3.82 99.16c-9.06 0-17.93-2.688-25.46-7.724-7.54-5.036-13.41-12.194-16.88-20.568s-4.378-17.589-2.61-26.479c1.77-8.89 6.13-17.057 12.54-23.466s14.58-10.774 23.47-12.543c8.89-1.768 18.1-0.86 26.48 2.608 8.37 3.469 15.53 9.343 20.57 16.88 5.03 7.537 7.72 16.397 7.72 25.462-0.01 12.15-4.85 23.8-13.44 32.392s-20.24 13.424-32.39 13.438z" fill="#fff"/>
 <path d="m1100.1 584.07h-485.53c-3.954 0-7.747-1.571-10.543-4.367s-4.367-6.588-4.367-10.543v-502.55c0-5.6757 2.255-11.119 6.268-15.132 4.013-4.0133 9.457-6.268 15.132-6.268h479c3.95 0 7.75 1.5709 10.54 4.3671 2.8 2.7962 4.37 6.5886 4.37 10.543v509c0 3.955-1.57 7.747-4.37 10.543-2.79 2.796-6.59 4.367-10.54 4.367l0.04 0.04z" fill="#091440"/>
 <path d="m873.22 127.24v374.76h-30.12c-79 0-143.06-83.9-143.06-187.4s64.05-187.4 143.06-187.4l30.12 0.04z" fill="#FFC84E"/>
 <path d="m874.05 502.04c79.01 0 143.06-83.902 143.06-187.4s-64.05-187.4-143.06-187.4-143.06 83.902-143.06 187.4 64.05 187.4 143.06 187.4z" fill="#FFC84E"/>
 <path d="m874.05 470.25c61.453 0 111.27-69.669 111.27-155.61s-49.817-155.61-111.27-155.61c-61.452 0-111.27 69.669-111.27 155.61s49.818 155.61 111.27 155.61z" fill="#fff"/>
 <polygon transform="matrix(1.893 0 0 1.893 822.29 248.56)" points="61 3.44 35.56 33.62 33.57 36 35.56 38.38 61 68.56 63.34 66.6 37.56 36 63.34 5.4" fill="#c1272d"/>
 <polygon transform="matrix(1.893 0 0 1.893 822.29 248.56)" points="56.65 72 58.99 70.04 30.3 36 58.99 1.96 56.65 0 28.31 33.62 2.34 2.67 0 4.64 26.32 36 0 67.36 2.34 69.33 28.31 38.38" fill="#1a1a1a"/>
 <g fill="#C4CBD2">
  <path d="M913.68 45.21H882.45V349.78H913.68V45.21Z"/>
  <path d="m835.6 45.21h-31.23v371.5h31.23v-371.5z"/>
  <path d="M757.52 45.21H726.29V495.35H757.52V45.21Z"/>
  <path d="M679.43 45.21H648.2V584.07H679.43V45.21Z"/>
  <path d="M991.77 45.21H960.54V282.85H991.77V45.21Z"/>
  <path d="m1069.8 45.21h-31.23v185.75h31.23v-185.75z"/>
 </g>
</svg>
