<svg version="1.1" viewBox="0 0 1160 800" xmlns="http://www.w3.org/2000/svg">
 <path d="M1160 0H0V800H1160V0Z" fill="#fff"/>
 <path d="m751.6 45.21h-692c-7.732 0-14 6.268-14 14v681.17c0 7.732 6.268 14 14 14h692c7.732 0 14-6.268 14-14v-681.17c0-7.732-6.268-14-14-14z" fill="#ED6D47"/>
 <path d="m1105.4 755.41h-310.9c-2.533 0-4.962-1.006-6.753-2.797s-2.797-4.22-2.797-6.753v-321.8c0-1.799 0.354-3.581 1.043-5.243 0.688-1.662 1.698-3.172 2.97-4.444 1.272-1.273 2.782-2.282 4.444-2.97 1.662-0.689 3.444-1.043 5.243-1.043h306.75c2.53 0 4.96 1.006 6.75 2.797s2.8 4.22 2.8 6.753v326c0 2.533-1.01 4.962-2.8 6.753s-4.22 2.797-6.75 2.797v-0.05z" fill="#FFC84E"/>
 <path d="m950 600.66v-88.89c-17.58 0-34.766 5.213-49.384 14.98-14.618 9.768-26.011 23.65-32.739 39.893-6.728 16.242-8.488 34.115-5.059 51.358 3.43 17.243 11.896 33.082 24.328 45.513 12.431 12.432 28.27 20.898 45.513 24.328 17.243 3.429 35.116 1.669 51.358-5.059 16.243-6.728 30.123-18.121 39.893-32.739s14.98-31.804 14.98-49.384h-88.89z" fill="#091440"/>
 <path d="m958.89 476.53v-18.1h26.67v-17.77h-71.12v17.77h26.67v18.1c-32.154 2.303-62.16 16.992-83.699 40.976-21.54 23.983-32.934 55.389-31.782 87.604 1.153 32.216 14.76 62.727 37.958 85.11 23.198 22.384 54.177 34.892 86.413 34.892s63.21-12.508 86.41-34.892c23.2-22.383 36.81-52.894 37.96-85.11 1.15-32.215-10.24-63.621-31.78-87.604-21.54-23.984-51.546-38.673-83.7-40.976zm-8.89 230.79c-21.098 0-41.722-6.256-59.264-17.978-17.542-11.721-31.214-28.381-39.287-47.873-8.074-19.492-10.185-40.941-6.069-61.633 4.117-20.692 14.277-39.699 29.196-54.616 14.919-14.918 33.927-25.077 54.62-29.191 20.692-4.115 42.14-2.001 61.632 6.074s36.152 21.749 47.872 39.292 17.97 38.167 17.97 59.265c-0.03 28.279-11.28 55.39-31.28 75.386-20 19.995-47.111 31.242-75.39 31.274z" fill="#fff"/>
 <path d="m1105.4 390.26h-310.9c-2.533 0-4.962-1.007-6.753-2.798s-2.797-4.22-2.797-6.752v-321.8c0-3.6335 1.443-7.1182 4.013-9.6874 2.569-2.5692 6.053-4.0126 9.687-4.0126h306.75c2.53 0 4.96 1.0061 6.75 2.7971s2.8 4.2201 2.8 6.7529v326c0 2.532-1.01 4.961-2.8 6.752s-4.22 2.798-6.75 2.798v-0.05z" fill="#091440"/>
 <path d="m960.18 97.73v240h-19.29c-50.59 0-91.6-53.72-91.6-120s41-120 91.6-120h19.29z" fill="#FFC84E"/>
 <path d="m960.71 337.73c50.59 0 91.61-53.725 91.61-120 0-66.274-41.02-120-91.61-120-50.595 0-91.61 53.726-91.61 120 0 66.275 41.015 120 91.61 120z" fill="#FFC84E"/>
 <path d="m960.71 317.37c39.35 0 71.25-44.611 71.25-99.64 0-55.03-31.9-99.64-71.25-99.64s-71.25 44.61-71.25 99.64c0 55.029 31.9 99.64 71.25 99.64z" fill="#fff"/>
 <polygon transform="matrix(1.1309 0 0 1.3182 931.29 170.28)" points="61 3.44 35.56 33.62 33.57 36 35.56 38.38 61 68.56 63.34 66.6 37.56 36 63.34 5.4" fill="#c1272d"/>
 <polygon transform="matrix(1.1309 0 0 1.3182 931.29 170.28)" points="30.3 36 58.99 1.96 56.65 0 28.31 33.62 2.34 2.67 0 4.64 26.32 36 0 67.36 2.34 69.33 28.31 38.38 56.65 72 58.99 70.04" fill="#1a1a1a"/>
 <g fill="#C4CBD2">
  <path d="m986.09 45.21h-20v345.05h20v-345.05z"/>
  <path d="m936.09 45.21h-20v345.05h20v-345.05z"/>
  <path d="m886.09 45.21h-20v345.05h20v-345.05z"/>
  <path d="m836.09 45.21h-20v345.05h20v-345.05z"/>
  <path d="m1036.1 45.21h-20v345.05h20v-345.05z"/>
  <path d="m1086.1 45.21h-20v345.05h20v-345.05z"/>
 </g>
 <path d="m339 574.17c0-17.666 7.018-34.609 19.509-47.1 12.492-12.492 29.435-19.51 47.101-19.51s34.608 7.018 47.1 19.51c12.492 12.491 19.51 29.434 19.51 47.1v0.4h58.4v-349.57h-58.41c-0.215 17.523-7.327 34.256-19.794 46.572-12.468 12.316-29.286 19.222-46.811 19.222s-34.344-6.906-46.811-19.222c-12.468-12.316-19.579-29.049-19.794-46.572h-58.41v349.57h58.41v-0.4z" fill="#FEB8A5"/>
 <path d="m418.1 324.79h-25v100h25v-100z" fill="#091440"/>
 <path d="m418.1 449.79h-25v25h25v-25z" fill="#091440"/>
</svg>
