<svg width="1160" height="800" viewBox="0 0 1160 800" fill="none" xmlns="http://www.w3.org/2000/svg">
  <path d="M1160 0H0V800H1160V0Z" fill="white"/>
 <path d="m1102 45.88h-496c-7.732 0-14 6.268-14 14v681.31c0 7.732 6.268 14 14 14h496c7.73 0 14-6.268 14-14v-681.31c0-7.732-6.27-14-14-14z" fill="#091440"/>
 <path d="m555 46.19h-495.27c-7.732 0-14 6.268-14 14v681.5c0 7.732 6.268 14 14 14h495.27c7.732 0 14-6.268 14-14v-681.5c0-7.732-6.268-14-14-14z" fill="#091440"/>
 <g fill="#394269">
  <path d="m137.36 660.94h-20v20h20v-20z"/>
  <path d="m197.36 660.94h-20v20h20v-20z"/>
  <path d="m257.36 660.94h-20v20h20v-20z"/>
 </g>
 <path d="m300.37 677.94h14v-14h-14v14z" fill="#fff"/>
 <g fill="#394269">
  <path d="m377.36 660.94h-20v20h20v-20z"/>
  <path d="m437.36 660.94h-20v20h20v-20z"/>
  <path d="m497.36 660.94h-20v20h20v-20z"/>
  <path d="m137.36 540.94h-20v20h20v-20z"/>
  <path d="m197.36 540.94h-20v20h20v-20z"/>
  <path d="m257.36 540.94h-20v20h20v-20z"/>
 </g>
 <path d="m300.37 557.94h14v-14h-14v14z" fill="#fff"/>
 <g fill="#394269">
  <path d="m377.36 540.94h-20v20h20v-20z"/>
  <path d="m437.36 540.94h-20v20h20v-20z"/>
  <path d="m497.36 540.94h-20v20h20v-20z"/>
  <path d="m137.36 600.94h-20v20h20v-20z"/>
  <path d="m197.36 600.94h-20v20h20v-20z"/>
  <path d="m257.36 600.94h-20v20h20v-20z"/>
 </g>
 <path d="m300.37 617.94h14v-14h-14v14z" fill="#fff"/>
 <g fill="#394269">
  <path d="m377.36 600.94h-20v20h20v-20z"/>
  <path d="m437.36 600.94h-20v20h20v-20z"/>
  <path d="m497.36 600.94h-20v20h20v-20z"/>
  <path d="m137.36 420.94h-20v20h20v-20z"/>
  <path d="m197.36 420.94h-20v20h20v-20z"/>
  <path d="m257.36 420.94h-20v20h20v-20z"/>
 </g>
 <path d="m300.37 437.94h14v-14h-14v14z" fill="#fff"/>
 <g fill="#394269">
  <path d="m377.36 420.94h-20v20h20v-20z"/>
  <path d="m437.36 420.94h-20v20h20v-20z"/>
  <path d="m497.36 420.94h-20v20h20v-20z"/>
  <path d="m137.36 480.94h-20v20h20v-20z"/>
  <path d="m197.36 480.94h-20v20h20v-20z"/>
  <path d="m257.36 480.94h-20v20h20v-20z"/>
 </g>
 <path d="m300.37 497.94h14v-14h-14v14z" fill="#fff"/>
 <g fill="#394269">
  <path d="m377.36 480.94h-20v20h20v-20z"/>
  <path d="m437.36 480.94h-20v20h20v-20z"/>
  <path d="m497.36 480.94h-20v20h20v-20z"/>
  <path d="m137.36 300.94h-20v20h20v-20z"/>
 </g>
 <path d="m180.37 317.94h14v-14h-14v14z" fill="#fff"/>
 <path d="m257.36 300.94h-20v20h20v-20z" fill="#394269"/>
 <path d="m300.37 317.94h14v-14h-14v14z" fill="#fff"/>
 <path d="m377.36 300.94h-20v20h20v-20z" fill="#394269"/>
 <path d="m420.37 317.94h14v-14h-14v14z" fill="#fff"/>
 <path d="m497.36 300.94h-20v20h20v-20z" fill="#394269"/>
 <path d="m137.36 360.94h-20v20h20v-20z" fill="#394269"/>
 <g fill="#fff">
  <path d="m180.37 377.94h14v-14h-14v14z"/>
  <path d="m240.37 377.94h14v-14h-14v14z"/>
  <path d="m300.37 377.94h14v-14h-14v14z"/>
  <path d="m360.37 377.94h14v-14h-14v14z"/>
  <path d="m420.37 377.94h14v-14h-14v14z"/>
 </g>
 <g fill="#394269">
  <path d="m497.36 360.94h-20v20h20v-20z"/>
  <path d="m137.36 180.94h-20v20h20v-20z"/>
  <path d="m197.36 180.94h-20v20h20v-20z"/>
  <path d="m257.36 180.94h-20v20h20v-20z"/>
  <path d="m317.36 180.94h-20v20h20v-20z"/>
  <path d="m377.36 180.94h-20v20h20v-20z"/>
  <path d="m437.36 180.94h-20v20h20v-20z"/>
  <path d="m497.36 180.94h-20v20h20v-20z"/>
  <path d="m137.36 240.94h-20v20h20v-20z"/>
  <path d="m257.36 240.94h-20v20h20v-20z"/>
  <path d="m377.36 240.94h-20v20h20v-20z"/>
  <path d="m497.36 240.94h-20v20h20v-20z"/>
  <path d="m137.36 120.94h-20v20h20v-20z"/>
  <path d="m197.36 120.94h-20v20h20v-20z"/>
  <path d="m257.36 120.94h-20v20h20v-20z"/>
  <path d="m317.36 120.94h-20v20h20v-20z"/>
  <path d="m377.36 120.94h-20v20h20v-20z"/>
  <path d="m437.36 120.94h-20v20h20v-20z"/>
  <path d="m497.36 120.94h-20v20h20v-20z"/>
 </g>
 <g fill="#2970FF">
  <path d="m684 670.53c0-5.523-4.477-10-10-10s-10 4.477-10 10 4.477 10 10 10 10-4.477 10-10z"/>
  <path d="m744 670.53c0-5.523-4.477-10-10-10s-10 4.477-10 10 4.477 10 10 10 10-4.477 10-10z"/>
  <path d="m804 670.53c0-5.523-4.477-10-10-10s-10 4.477-10 10 4.477 10 10 10 10-4.477 10-10z"/>
 </g>
 <path d="m854 680.43 9.9-9.9-9.9-9.899-9.899 9.899 9.899 9.9z" fill="#fff"/>
 <g fill="#2DD8A3">
  <path d="m924 660.53h-20v20h20v-20z"/>
  <path d="m984 660.53h-20v20h20v-20z"/>
  <path d="m1044 660.53h-20v20h20v-20z"/>
 </g>
 <g fill="#2970FF">
  <path d="m684 550.53c0-5.523-4.477-10-10-10s-10 4.477-10 10 4.477 10 10 10 10-4.477 10-10z"/>
  <path d="m744 550.53c0-5.523-4.477-10-10-10s-10 4.477-10 10 4.477 10 10 10 10-4.477 10-10z"/>
  <path d="m804 550.53c0-5.523-4.477-10-10-10s-10 4.477-10 10 4.477 10 10 10 10-4.477 10-10z"/>
 </g>
 <path d="m854.01 560.44 9.9-9.9-9.9-9.899-9.899 9.899 9.899 9.9z" fill="#fff"/>
 <g fill="#2DD8A3">
  <path d="m924 540.53h-20v20h20v-20z"/>
  <path d="m984 540.53h-20v20h20v-20z"/>
  <path d="m1044 540.53h-20v20h20v-20z"/>
 </g>
 <g fill="#2970FF">
  <path d="m684 610.53c0-5.523-4.477-10-10-10s-10 4.477-10 10 4.477 10 10 10 10-4.477 10-10z"/>
  <path d="m744 610.53c0-5.523-4.477-10-10-10s-10 4.477-10 10 4.477 10 10 10 10-4.477 10-10z"/>
  <path d="m804 610.53c0-5.523-4.477-10-10-10s-10 4.477-10 10 4.477 10 10 10 10-4.477 10-10z"/>
 </g>
 <path d="m854 620.44 9.899-9.9-9.899-9.899-9.9 9.899 9.9 9.9z" fill="#fff"/>
 <g fill="#2DD8A3">
  <path d="m924 600.53h-20v20h20v-20z"/>
  <path d="m984 600.53h-20v20h20v-20z"/>
  <path d="m1044 600.53h-20v20h20v-20z"/>
 </g>
 <g fill="#2970FF">
  <path d="m684 430.53c0-5.523-4.477-10-10-10s-10 4.477-10 10 4.477 10 10 10 10-4.477 10-10z"/>
  <path d="m744 430.53c0-5.523-4.477-10-10-10s-10 4.477-10 10 4.477 10 10 10 10-4.477 10-10z"/>
  <path d="m804 430.53c0-5.523-4.477-10-10-10s-10 4.477-10 10 4.477 10 10 10 10-4.477 10-10z"/>
  <path d="m864 430.53c0-5.523-4.477-10-10-10s-10 4.477-10 10 4.477 10 10 10 10-4.477 10-10z"/>
 </g>
 <path d="m914 440.44 9.899-9.9-9.899-9.899-9.9 9.899 9.9 9.9z" fill="#fff"/>
 <path d="m984 420.53h-20v20h20v-20z" fill="#2DD8A3"/>
 <path d="m1044 420.53h-20v20h20v-20z" fill="#2DD8A3"/>
 <g fill="#2970FF">
  <path d="m684 490.53c0-5.523-4.477-10-10-10s-10 4.477-10 10 4.477 10 10 10 10-4.477 10-10z"/>
  <path d="m744 490.53c0-5.523-4.477-10-10-10s-10 4.477-10 10 4.477 10 10 10 10-4.477 10-10z"/>
  <path d="m804 490.53c0-5.523-4.477-10-10-10s-10 4.477-10 10 4.477 10 10 10 10-4.477 10-10z"/>
  <path d="m864 490.53c0-5.523-4.477-10-10-10s-10 4.477-10 10 4.477 10 10 10 10-4.477 10-10z"/>
 </g>
 <path d="m914.01 500.44 9.9-9.9-9.9-9.899-9.899 9.899 9.899 9.9z" fill="#fff"/>
 <path d="m984 480.53h-20v20h20v-20z" fill="#2DD8A3"/>
 <path d="m1044 480.53h-20v20h20v-20z" fill="#2DD8A3"/>
 <path d="m684 310.53c0-5.523-4.477-10-10-10s-10 4.477-10 10 4.477 10 10 10 10-4.477 10-10z" fill="#2970FF"/>
 <path d="m744 310.53c0-5.523-4.477-10-10-10s-10 4.477-10 10 4.477 10 10 10 10-4.477 10-10z" fill="#2970FF"/>
 <path d="m794 320.44 9.9-9.9-9.9-9.899-9.899 9.899 9.899 9.9z" fill="#fff"/>
 <path d="m854 320.44 9.899-9.9-9.899-9.899-9.9 9.899 9.9 9.9z" fill="#fff"/>
 <g fill="#2DD8A3">
  <path d="m924 300.53h-20v20h20v-20z"/>
  <path d="m984 300.53h-20v20h20v-20z"/>
  <path d="m1044 300.53h-20v20h20v-20z"/>
 </g>
 <g fill="#2970FF">
  <path d="m684 370.53c0-5.523-4.477-10-10-10s-10 4.477-10 10 4.477 10 10 10 10-4.477 10-10z"/>
  <path d="m744 370.53c0-5.523-4.477-10-10-10s-10 4.477-10 10 4.477 10 10 10 10-4.477 10-10z"/>
  <path d="m804 370.53c0-5.523-4.477-10-10-10s-10 4.477-10 10 4.477 10 10 10 10-4.477 10-10z"/>
  <path d="m864 370.53c0-5.523-4.477-10-10-10s-10 4.477-10 10 4.477 10 10 10 10-4.477 10-10z"/>
 </g>
 <path d="m914 380.44 9.899-9.9-9.899-9.899-9.9 9.899 9.9 9.9z" fill="#fff"/>
 <path d="m984 360.53h-20v20h20v-20z" fill="#2DD8A3"/>
 <path d="m1044 360.53h-20v20h20v-20z" fill="#2DD8A3"/>
 <g fill="#394269">
  <path d="m684 180.53h-20v20h20v-20z"/>
  <path d="m744 180.53h-20v20h20v-20z"/>
  <path d="m804 180.53h-20v20h20v-20z"/>
  <path d="m864 180.53h-20v20h20v-20z"/>
  <path d="m924 180.53h-20v20h20v-20z"/>
  <path d="m984 180.53h-20v20h20v-20z"/>
  <path d="m1044 180.53h-20v20h20v-20z"/>
 </g>
 <path d="m684 250.53c0-5.523-4.477-10-10-10s-10 4.477-10 10 4.477 10 10 10 10-4.477 10-10z" fill="#2970FF"/>
 <path d="m744 250.53c0-5.523-4.477-10-10-10s-10 4.477-10 10 4.477 10 10 10 10-4.477 10-10z" fill="#2970FF"/>
 <path d="m801 257.53v-14h-14v14h14z" fill="#fff"/>
 <g fill="#2DD8A3">
  <path d="m864 240.53h-20v20h20v-20z"/>
  <path d="m924 240.53h-20v20h20v-20z"/>
  <path d="m984 240.53h-20v20h20v-20z"/>
  <path d="m1044 240.53h-20v20h20v-20z"/>
 </g>
 <g fill="#394269">
  <path d="m684 120.53h-20v20h20v-20z"/>
  <path d="m744 120.53h-20v20h20v-20z"/>
  <path d="m804 120.53h-20v20h20v-20z"/>
  <path d="m864 120.53h-20v20h20v-20z"/>
  <path d="m924 120.53h-20v20h20v-20z"/>
  <path d="m984 120.53h-20v20h20v-20z"/>
  <path d="m1044 120.53h-20v20h20v-20z"/>
 </g>
 <g fill="#fff">
  <path d="m856 670.53h-4v-120.82l60-60v-118.35l-58.83-58.83h-61.17v-122h4v118h58.83l61.17 61.18v121.65l-60 60v119.17z"/>
  <path d="m309.36 670.94h-4v-298h-120v-122.11h4v118.11h120v302z"/>
  <path d="m429.36 372.94h-124v-122.11h4v118.11h116l-0.08-118.1 4-0.01 0.08 122.11z"/>
 </g>
 <g fill="#394269">
  <path d="m189.36 130.83h-4v3h4v-3z"/>
  <path d="m189.36 181.83h-4v-6h4v6zm0-12h-4v-6h4v6zm0-12h-4v-6h4v6zm0-12h-4v-6h4v6z"/>
  <path d="m189.36 187.83h-4v3h4v-3z"/>
  <path d="m309.36 130.83h-4v3h4v-3z"/>
  <path d="m309.36 181.83h-4v-6h4v6zm0-12h-4v-6h4v6zm0-12h-4v-6h4v6zm0-12h-4v-6h4v6z"/>
  <path d="m309.36 187.83h-4v3h4v-3z"/>
  <path d="m429.36 130.83h-4v3h4v-3z"/>
  <path d="m429.36 181.83h-4v-6h4v6zm0-12h-4v-6h4v6zm0-12h-4v-6h4v6zm0-12h-4v-6h4v6z"/>
  <path d="m429.36 187.83h-4v3h4v-3z"/>
 </g>
 <path d="m213.39 249.68c-3.593 3.646-7.872 6.545-12.591 8.531-4.719 1.985-9.784 3.016-14.903 3.035s-10.192-0.975-14.925-2.926c-4.733-1.95-9.034-4.818-12.654-8.438s-6.487-7.92-8.438-12.653c-1.95-4.734-2.944-9.806-2.926-14.925 0.019-5.12 1.051-10.185 3.036-14.903 1.985-4.719 4.885-8.998 8.531-12.591l54.87 54.87z" fill="#FFC84E"/>
 <path d="m218.08 195c-6.616-7.88-16.091-12.81-26.341-13.706-10.249-0.896-20.436 2.314-28.319 8.926l49.88 59.45c7.88-6.618 12.81-16.095 13.706-26.346 0.897-10.251-2.314-20.439-8.926-28.324z" fill="#FFC84E"/>
 <path d="m161.74 201.62 7.64 7.65c-2.561 3.558-3.93 7.836-3.91 12.22-4e-3 3.876 1.06 7.678 3.074 10.99 2.015 3.312 4.903 6.004 8.348 7.782 3.444 1.778 7.312 2.573 11.178 2.297 3.867-0.275 7.583-1.611 10.74-3.859l7.76 7.76 5-5-7.77-7.78c2.529-3.57 3.891-7.835 3.9-12.21h-7.05c6e-3 1.843-0.355 3.669-1.061 5.372-0.705 1.702-1.741 3.248-3.049 4.548-1.636 1.603-3.641 2.78-5.838 3.427-2.197 0.648-4.519 0.747-6.764 0.288-2.244-0.459-4.341-1.461-6.108-2.919-1.766-1.459-3.148-3.328-4.024-5.445-0.875-2.116-1.218-4.415-0.998-6.695 0.219-2.28 0.995-4.472 2.259-6.382s2.977-3.481 4.99-4.575 4.263-1.678 6.553-1.699v-7.04c-4.13-0.012-8.171 1.203-11.61 3.49l-0.67 0.46-7.65-7.66-4.94 4.98z" fill="#fff"/>
 <path d="m318 258.13c-4.767 2.038-9.894 3.101-15.078 3.124-5.185 0.024-10.321-0.992-15.107-2.986-4.785-1.995-9.122-4.929-12.754-8.628-3.633-3.699-6.487-8.089-8.395-12.91-1.907-4.821-2.829-9.975-2.711-15.158s1.273-10.29 3.398-15.019 5.176-8.984 8.973-12.514c3.797-3.531 8.263-6.264 13.134-8.039l28.54 72.13z" fill="#FFC84E"/>
 <path d="m347.76 211.2c-2.422-10.001-8.717-18.631-17.501-23.991s-19.338-7.01-29.339-4.589l18.26 75.38c4.953-1.198 9.621-3.36 13.738-6.362 4.117-3.003 7.602-6.787 10.256-11.137s4.425-9.18 5.212-14.214c0.787-5.035 0.574-10.175-0.626-15.127" fill="#FFC84E"/>
 <path d="m284.44 198.82 6.65 8.519c-2.975 3.224-4.854 7.305-5.37 11.66-0.478 3.848 0.114 7.753 1.711 11.286 1.596 3.533 4.136 6.557 7.34 8.741 3.203 2.184 6.947 3.442 10.819 3.637 3.872 0.194 7.723-0.682 11.13-2.533l6.76 8.649 5.55-4.33-6.76-8.67c2.943-3.235 4.815-7.3 5.36-11.64h-0.23l-6.76-0.84c-0.215 1.83-0.792 3.599-1.699 5.203-0.907 1.603-2.124 3.01-3.581 4.137-1.817 1.4-3.951 2.332-6.212 2.713-2.262 0.382-4.583 0.202-6.759-0.523-2.176-0.726-4.14-1.975-5.72-3.638s-2.728-3.689-3.341-5.899c-0.614-2.21-0.675-4.537-0.178-6.776 0.497-2.24 1.536-4.323 3.027-6.066 1.49-1.743 3.386-3.094 5.521-3.933s4.443-1.14 6.722-0.878l0.81-6.759v-0.231c-4.071-0.516-8.203 0.179-11.88 2l-0.71 0.371-6.64-8.541-5.56 4.341z" fill="#fff"/>
 <path d="m438.12 258.51c-9.802 3.133-20.448 2.245-29.595-2.471s-16.046-12.872-19.18-22.674c-3.134-9.803-2.245-20.448 2.471-29.595 4.715-9.147 12.872-16.047 22.674-19.18l23.63 73.92z" fill="#FFC84E"/>
 <path d="m468.1 207.23c-1.74-4.791-4.406-9.192-7.847-12.952s-7.589-6.806-12.206-8.963c-4.618-2.157-9.616-3.383-14.708-3.609s-10.178 0.554-14.969 2.294l26.54 73c9.668-3.521 17.542-10.738 21.891-20.064 4.348-9.325 4.816-19.996 1.299-29.666" fill="#FFC84E"/>
 <path d="m410 193.48 4.56 9.8c-3.622 2.47-6.37 6.023-7.85 10.15-1.33 3.642-1.631 7.581-0.869 11.383s2.557 7.321 5.187 10.169c2.631 2.849 5.996 4.918 9.726 5.98 3.729 1.061 7.679 1.074 11.416 0.038l4.64 9.95 6.39-3-4.65-10c3.596-2.491 6.335-6.033 7.84-10.14l-0.21-0.08-6.4-2.35c-0.625 1.734-1.588 3.326-2.832 4.686-1.244 1.359-2.746 2.458-4.418 3.234-2.086 0.955-4.374 1.383-6.664 1.246-2.289-0.137-4.51-0.834-6.467-2.03s-3.591-2.855-4.756-4.831c-1.166-1.976-1.828-4.207-1.929-6.499-0.101-2.291 0.363-4.573 1.351-6.643 0.987-2.07 2.469-3.866 4.313-5.23 1.845-1.363 3.996-2.253 6.265-2.59s4.586-0.112 6.747 0.657l2.31-6.38 0.08-0.22c-3.846-1.401-8.018-1.645-12-0.7l-0.77 0.2-4.58-9.81-6.43 3.01z" fill="#fff"/>
 <path d="m793.78 259.83c22.092 0 40-17.909 40-40s-17.908-40-40-40c-22.091 0-40 17.909-40 40s17.909 40 40 40z" fill="#2970FF"/>
 <polygon transform="matrix(.041109 0 0 .041109 774.08 197.96)" points="388.92 532 0 995.5 34.58 1024.5 418.37 567.11 837.15 1064 871.73 1035 447.83 532 871.73 29.01 837.15 0 418.37 496.89 34.58 39.49 0 68.5" fill="#fff"/>
 <polygon transform="matrix(.041109 0 0 .041109 774.08 197.96)" points="901.47 50.78 525.57 496.89 496.11 532 525.57 567.11 901.47 1013.2 936.04 984.21 555.03 532 936.04 79.79" fill="#c1272d"/>
</svg>
