<svg version="1.1" viewBox="0 0 105.83 20" xmlns="http://www.w3.org/2000/svg">
 <g transform="matrix(.01879 0 0 .01879 -1.3856 -.1879)">
  <polygon class="cls-1" points="1006.3 990.51 626.68 540 1006.3 89.49 971.82 60.59 597.33 505.02 567.98 540 597.33 574.98 971.82 1019.4" fill="#c1272d"/>
  <polygon class="cls-2" points="942.19 1041.1 519.89 540 942.19 38.9 907.74 10 490.54 505.02 108.18 49.34 73.74 78.25 461.19 540 73.74 1001.8 108.18 1030.7 490.54 574.98 907.74 1070" fill="#1a1a1a"/>
 </g>
 <g transform="matrix(.01879 0 0 .01879 -3.7138 2.6066)" style="shape-inside:url(#rect359);white-space:pre" aria-label="ExchangeCoin">
  <path d="m2739.7 212.9v303.91h36.719v-162.89c10.026-7.6823 20.508-13.997 31.445-18.945 10.937-4.9479 21.419-7.4219 31.445-7.4219 9.7656 0 17.708 1.3672 23.828 4.1016 6.1198 2.6042 10.807 6.6406 14.062 12.109 3.125 4.9479 5.2735 11.849 6.4453 20.703 1.1719 8.724 1.7578 18.099 1.7578 28.125v124.22h36.719v-141.6c0-26.693-6.1849-47.135-18.555-61.328-12.37-14.193-30.338-21.289-53.906-21.289-12.891 0-25.456 2.6693-37.695 8.0078-12.24 5.3385-24.088 12.76-35.547 22.266v-109.96zm1362.9 7.8125c-21.354 0-40.82 3.3203-58.398 9.9609-17.448 6.6406-32.357 16.276-44.727 28.906-12.76 13.021-22.526 28.971-29.297 47.852s-10.156 40.3-10.156 64.258c0 25.26 3.5156 47.461 10.547 66.602 7.0312 19.01 16.797 34.701 29.297 47.07 12.76 12.63 27.734 21.94 44.922 27.93 17.318 5.8594 36.524 8.7891 57.617 8.7891 11.198 0 21.419-0.91146 30.664-2.7344 9.375-1.6927 18.034-3.776 25.977-6.25 9.3749-2.9948 16.927-5.8594 22.656-8.5938 5.8593-2.7344 12.37-5.6641 19.531-8.7891v-45.312h-2.7344c-14.193 12.76-29.427 22.331-45.703 28.711-16.276 6.3802-33.724 9.5703-52.344 9.5703-13.542 0-26.432-2.2786-38.672-6.8359-12.109-4.6875-22.721-11.849-31.836-21.484-8.724-9.2448-15.886-21.224-21.484-35.938-5.4687-14.714-8.2031-32.292-8.2031-52.734 0-19.531 2.474-36.719 7.4219-51.562 5.0781-14.974 12.109-27.344 21.094-37.109 9.2448-10.026 19.727-17.383 31.445-22.07 11.849-4.8177 25.13-7.2266 39.844-7.2266 17.969 0 34.831 3.0599 50.586 9.1797s31.641 15.885 47.656 29.297h2.9297v-45.898c-19.01-9.5052-36.328-16.146-51.953-19.922-15.495-3.776-31.055-5.6641-46.68-5.6641zm391.21 3.3203v38.086h41.406v-38.086zm-2445.3 1.9531v290.82h191.6v-34.375h-152.93v-108.01h152.93v-34.375h-152.93v-79.688h152.93v-34.375zm1294.5 66.602c-12.891 0-25.456 2.6693-37.695 8.0078-12.24 5.3385-24.088 12.76-35.547 22.266v-24.219h-36.719v218.16h36.719v-162.89c10.026-7.6823 20.508-13.997 31.445-18.945 10.938-4.9479 21.419-7.4219 31.445-7.4219 9.7656 0 17.708 1.3672 23.828 4.1016 6.1198 2.6042 10.807 6.6406 14.062 12.109 3.125 4.9479 5.2734 11.849 6.4453 20.703 1.1719 8.724 1.7578 18.099 1.7578 28.125v124.22h36.719v-141.6c0-26.693-6.185-47.135-18.555-61.328-12.37-14.193-30.339-21.289-53.906-21.289zm224.61 0c-11.979 0-24.024 2.6042-36.133 7.8125-12.109 5.0781-22.396 12.24-30.859 21.484-9.1146 9.8958-16.341 21.68-21.68 35.352-5.2083 13.542-7.8125 29.688-7.8125 48.438 0 34.245 7.6172 60.807 22.852 79.688 15.364 18.75 36.068 28.125 62.109 28.125 15.625 0 28.45-2.1484 38.476-6.4453 10.156-4.4271 20.768-11.068 31.836-19.922v19.922c0 8.8542-0.9767 16.862-2.9297 24.023-1.9532 7.1614-5.2083 13.281-9.7656 18.359-4.5573 5.3385-10.938 9.5052-19.141 12.5-8.2031 2.9948-18.555 4.4922-31.055 4.4922-13.021 0-26.042-1.7578-39.062-5.2734-13.021-3.3854-22.526-6.25-28.516-8.5938h-1.9531v37.5c10.677 2.9948 21.484 5.2734 32.422 6.8359 11.068 1.6927 22.396 2.5391 33.984 2.5391 34.896 0 60.742-8.6589 77.539-25.977 16.797-17.318 25.195-44.466 25.195-81.445v-193.36h-34.375l-2.3437 9.375c-9.5052-5.2083-18.555-9.0495-27.148-11.523-8.4635-2.6042-19.01-3.9062-31.641-3.9062zm258.4 0c-31.771 0-57.422 10.482-76.953 31.445-19.401 20.964-29.102 49.284-29.102 84.961 0 36.068 10.156 63.932 30.469 83.594 20.312 19.531 48.568 29.297 84.766 29.297 14.193 0 27.734-1.7578 40.625-5.2734s25.521-7.8776 37.891-13.086v-40.039h-1.9532c-6.3802 5.7292-17.122 11.589-32.226 17.578-14.974 5.8594-29.883 8.7891-44.727 8.7891-11.198 0-21.484-1.5625-30.859-4.6875-9.2448-3.125-17.253-7.8125-24.023-14.062-7.0313-6.3802-12.565-14.518-16.602-24.414-4.0364-10.026-6.0547-21.745-6.0547-35.156h160.74v-19.922c0-31.641-8.0078-56.055-24.023-73.242-15.886-17.187-38.542-25.781-67.969-25.781zm512.3 0c-30.859 0-55.404 10.352-73.633 31.055-18.099 20.573-27.148 48.633-27.148 84.18s9.0495 63.607 27.148 84.18c18.229 20.573 42.774 30.859 73.633 30.859 30.599 0 55.013-10.286 73.242-30.859 18.229-20.573 27.344-48.633 27.344-84.18s-9.1147-63.607-27.344-84.18c-18.229-20.703-42.643-31.055-73.242-31.055zm377.15 0c-12.891 0-25.456 2.6693-37.695 8.0078-12.24 5.3385-24.089 12.76-35.547 22.266v-24.219h-36.719v218.16h36.719v-162.89c10.026-7.6823 20.508-13.997 31.445-18.945 10.937-4.9479 21.419-7.4219 31.445-7.4219 9.7656 0 17.708 1.3672 23.828 4.1016 6.1198 2.6042 10.807 6.6406 14.062 12.109 3.125 4.9479 5.2735 11.849 6.4453 20.703 1.1719 8.724 1.7579 18.099 1.7579 28.125v124.22h36.719v-141.6c0-26.693-6.1849-47.135-18.555-61.328-12.37-14.193-30.339-21.289-53.906-21.289zm-1648 0.78125c-13.151 0-26.497 1.1719-40.039 3.5156-13.542 2.3438-23.893 4.4922-31.055 6.4453v37.305h1.9532c12.63-4.8177 24.87-8.4635 36.719-10.938 11.849-2.6042 22.591-3.9062 32.227-3.9062 7.9426 0 15.56 0.52083 22.852 1.5625 7.2917 1.0417 13.542 3.0599 18.75 6.0547 5.4688 3.125 9.6354 7.4219 12.5 12.891 2.9948 5.4688 4.4922 12.37 4.4922 20.703v5.6641c-21.354 1.0417-41.341 2.6042-59.961 4.6875s-34.57 6.0547-47.852 11.914c-13.151 5.8594-23.307 13.932-30.469 24.219-7.0313 10.156-10.547 23.503-10.547 40.039 0 20.182 6.836 36.784 20.508 49.805 13.672 13.021 30.339 19.531 50 19.531 10.677 0 19.987-1.0417 27.93-3.125 7.9427-1.9531 14.974-4.4271 21.094-7.4219 5.2083-2.3438 10.547-5.4688 16.016-9.375 5.5989-4.0365 10.026-7.1615 13.281-9.375v23.242h36.524v-148.05c0-14.062-2.1485-25.846-6.4453-35.352-4.2969-9.5052-10.547-17.253-18.75-23.242-8.3334-6.1198-18.229-10.417-29.688-12.891-11.328-2.6042-24.675-3.9062-40.039-3.9062zm-444.73 0.19532c-32.161 0-58.073 10.156-77.734 30.469-19.531 20.312-29.297 48.307-29.297 83.984 0 19.141 2.6042 35.872 7.8125 50.195s12.565 26.172 22.07 35.547c9.375 9.375 20.638 16.406 33.789 21.094 13.151 4.5573 27.604 6.8359 43.359 6.8359 12.37 0 24.024-1.6276 34.961-4.8828 11.068-3.2552 22.721-7.8125 34.961-13.672v-40.43h-1.9531c-2.7344 2.2136-6.4453 4.8828-11.133 8.0078-4.6875 2.9948-9.7006 5.8594-15.039 8.5938-6.1198 3.125-13.021 5.6641-20.703 7.6172-7.6823 1.9531-15.234 2.9297-22.656 2.9297-21.354 0-37.956-7.0313-49.805-21.094-11.719-14.193-17.578-34.44-17.578-60.742 0-27.083 5.9896-47.591 17.969-61.523 12.109-14.062 28.581-21.094 49.414-21.094 11.328 0 22.917 2.3438 34.766 7.0312 11.979 4.6875 23.568 11.393 34.766 20.117h1.9531v-40.82c-10.026-5.0781-21.094-9.375-33.203-12.891-11.979-3.5156-24.219-5.2734-36.719-5.2734zm-347.85 5.0781 84.375 109.38-85.156 108.79h42.774l62.305-83.789 61.914 83.789h46.289l-85.742-110.74 85.742-107.42h-42.969l-61.719 82.422-61.524-82.422zm2221.3 0v218.16h36.719v-218.16zm-672.07 24.219c19.531 0 34.05 5.2734 43.555 15.82 9.6354 10.547 14.518 25.456 14.648 44.727h-125c1.5626-17.187 8.1381-31.576 19.727-43.164 11.719-11.589 27.409-17.383 47.07-17.383zm514.26 1.3672c19.662 0 35.026 6.901 46.094 20.703 11.068 13.672 16.602 34.635 16.602 62.891 0 27.604-5.5989 48.438-16.797 62.5-11.068 13.932-26.367 20.898-45.898 20.898-19.792 0-35.221-7.0313-46.289-21.094-11.068-14.193-16.602-34.961-16.602-62.305 0-28.255 5.4688-49.219 16.406-62.891 11.068-13.802 26.562-20.703 46.484-20.703zm-764.26 1.3672c8.3333 0 16.667 0.97656 25 2.9297 8.4635 1.8229 17.578 4.9479 27.344 9.375v118.95c-8.9844 6.901-18.88 12.435-29.688 16.602-10.677 4.0364-21.354 6.0547-32.031 6.0547-19.922 0-34.18-6.3151-42.773-18.945-8.5938-12.63-12.891-31.185-12.891-55.664 0-25.781 5.7942-45.443 17.383-58.984 11.589-13.542 27.474-20.312 47.656-20.312zm-448.24 76.758v60.742c-9.1146 7.0312-19.01 13.086-29.688 18.164-10.677 4.9479-22.461 7.4219-35.352 7.4219-15.495 0-27.018-3.125-34.57-9.375-7.5521-6.3802-11.328-15.82-11.328-28.32 0-11.068 3.2553-19.727 9.7657-25.977 6.5104-6.3802 15.039-11.068 25.586-14.062 8.8541-2.474 20.833-4.362 35.938-5.6641 15.234-1.3021 28.45-2.2786 39.648-2.9297z"/>
 </g>
</svg>
