<svg xmlns="http://www.w3.org/2000/svg" viewBox="0 0 953.23 277.17">
  <defs>
    <style>
      .cls-1 {
        fill: #c1272d;
      }

      .cls-2 {
        fill: #1a1a1a;
      }
    </style>
  </defs>
  <g id="Layer_2" data-name="Layer 2">
    <g id="Layer_6" data-name="Layer 6">
      <g>
        <g>
          <polygon class="cls-1" points="243.84 20.79 234.83 13.23 136.91 129.44 129.24 138.59 136.91 147.73 234.83 263.95 243.84 256.39 144.59 138.59 243.84 20.79"/>
          <polygon class="cls-2" points="227.09 7.56 218.08 0 108.99 129.44 9.01 10.29 0 17.85 101.31 138.59 0 259.33 9.01 266.89 108.99 147.73 218.08 277.17 227.09 269.62 116.66 138.59 227.09 7.56"/>
        </g>
        <g>
          <path class="cls-2" d="M309.55,171.83V101.67h44v9.11h-33.4v21.38h31.1v9.08h-31.1v21.47h33.81v9.12Z"/>
          <path class="cls-2" d="M374.05,119.21l11.61,20.49,11.71-20.49h11.2l-16.4,26.31,16.54,26.31h-11.2l-11.85-19.67-11.82,19.67H362.61L379,145.52l-16.17-26.31Z"/>
          <path class="cls-2" d="M437.44,172.89a24.06,24.06,0,0,1-13.14-3.48,22.75,22.75,0,0,1-8.44-9.61,34.82,34.82,0,0,1,.07-28.21,23.06,23.06,0,0,1,8.49-9.6,23.64,23.64,0,0,1,12.91-3.46A24.71,24.71,0,0,1,448,120.74a19.4,19.4,0,0,1,7.59,6.18,18.65,18.65,0,0,1,3.44,9.28h-10a11.93,11.93,0,0,0-3.75-6.37,11.16,11.16,0,0,0-7.82-2.67A12.77,12.77,0,0,0,430,129.4a14.62,14.62,0,0,0-5,6.37,24.42,24.42,0,0,0-1.78,9.75,25.74,25.74,0,0,0,1.74,9.93,14.77,14.77,0,0,0,4.95,6.48,13.57,13.57,0,0,0,12.85,1.21,10.88,10.88,0,0,0,4-3.1,11.88,11.88,0,0,0,2.27-4.86h10a19,19,0,0,1-10.74,15.41A24.24,24.24,0,0,1,437.44,172.89Z"/>
          <path class="cls-2" d="M479.34,140.59v31.24H469.1V101.67h10.11v26.1h.65a15,15,0,0,1,5.65-6.74q3.8-2.5,9.93-2.5a19.4,19.4,0,0,1,9.47,2.22,15.29,15.29,0,0,1,6.31,6.63,24.12,24.12,0,0,1,2.24,11v33.47H503.22V139.59c0-3.86-1-6.85-3-9s-4.75-3.2-8.29-3.2a13.41,13.41,0,0,0-6.49,1.54,11,11,0,0,0-4.49,4.5A14.61,14.61,0,0,0,479.34,140.59Z"/>
          <path class="cls-2" d="M541,173a21.25,21.25,0,0,1-9-1.87,15,15,0,0,1-6.39-5.43,15.54,15.54,0,0,1-2.34-8.73,14.18,14.18,0,0,1,1.71-7.33,12.63,12.63,0,0,1,4.62-4.56,24.05,24.05,0,0,1,6.51-2.53,63.44,63.44,0,0,1,7.33-1.3l7.68-.91a11.09,11.09,0,0,0,4.28-1.18,2.9,2.9,0,0,0,1.33-2.68v-.23a9.33,9.33,0,0,0-2.51-7q-2.52-2.46-7.49-2.46-5.18,0-8.13,2.27a12.41,12.41,0,0,0-4.1,5.06l-9.62-2.2a18.47,18.47,0,0,1,5-7.75,20.3,20.3,0,0,1,7.62-4.32,30.17,30.17,0,0,1,9.07-1.35,33,33,0,0,1,6.7.73,20.11,20.11,0,0,1,6.65,2.69,14.86,14.86,0,0,1,5.08,5.57,19.3,19.3,0,0,1,2,9.37v34.94H557v-7.2h-.41a14.78,14.78,0,0,1-3,3.91,15.79,15.79,0,0,1-5.11,3.18A19.68,19.68,0,0,1,541,173Zm2.23-8.22a14.81,14.81,0,0,0,7.28-1.68,11.89,11.89,0,0,0,4.62-4.4,11.31,11.31,0,0,0,1.6-5.84v-6.78a5.33,5.33,0,0,1-2.11,1,29.51,29.51,0,0,1-3.54.78c-1.33.22-2.62.42-3.87.59l-3.16.42a25.79,25.79,0,0,0-5.42,1.27,9.38,9.38,0,0,0-3.91,2.55,7.3,7.3,0,0,0,1.35,10.14A12.37,12.37,0,0,0,543.25,164.77Z"/>
          <path class="cls-2" d="M589.92,140.59v31.24H579.68V119.21h9.83v8.56h.65a15,15,0,0,1,5.7-6.71,17.65,17.65,0,0,1,9.82-2.53,19.08,19.08,0,0,1,9.42,2.24,15.25,15.25,0,0,1,6.26,6.66,24.08,24.08,0,0,1,2.23,10.93v33.47H613.35V139.59q0-5.72-3-9a10.61,10.61,0,0,0-8.19-3.23,12.72,12.72,0,0,0-6.32,1.54,11,11,0,0,0-4.35,4.5A15,15,0,0,0,589.92,140.59Z"/>
          <path class="cls-2" d="M658.09,192.55a31.45,31.45,0,0,1-10.78-1.65,20.91,20.91,0,0,1-7.34-4.33,18.3,18.3,0,0,1-4.25-5.84l8.8-3.63a23.17,23.17,0,0,0,2.49,3.12,12.83,12.83,0,0,0,4.24,2.87,17.19,17.19,0,0,0,6.94,1.2,15.75,15.75,0,0,0,9.63-2.81q3.79-2.8,3.8-8.9V162.23H671a23.67,23.67,0,0,1-2.66,3.74,14.52,14.52,0,0,1-4.74,3.56,17.67,17.67,0,0,1-7.85,1.51,21.73,21.73,0,0,1-11.21-2.93,20.3,20.3,0,0,1-7.88-8.67,31.12,31.12,0,0,1-2.9-14.13,33.22,33.22,0,0,1,2.86-14.38,21.68,21.68,0,0,1,7.86-9.2,20.56,20.56,0,0,1,11.34-3.2,16.72,16.72,0,0,1,7.92,1.62,15.11,15.11,0,0,1,4.71,3.79,31.08,31.08,0,0,1,2.62,3.8h.75v-8.53h10V173a18.34,18.34,0,0,1-3.16,11,18.59,18.59,0,0,1-8.51,6.42A33.07,33.07,0,0,1,658.09,192.55Zm-.11-30a13.07,13.07,0,0,0,7.49-2.07,12.84,12.84,0,0,0,4.66-6,24.6,24.6,0,0,0,1.59-9.33,25.93,25.93,0,0,0-1.57-9.36,14.14,14.14,0,0,0-4.63-6.32,13.65,13.65,0,0,0-15.24.11,14.41,14.41,0,0,0-4.64,6.45,25.36,25.36,0,0,0-1.56,9.12,24.13,24.13,0,0,0,1.57,9.07,13.33,13.33,0,0,0,4.68,6.1A12.94,12.94,0,0,0,658,162.54Z"/>
          <path class="cls-2" d="M717.32,172.89a25.75,25.75,0,0,1-13.38-3.34,22.31,22.31,0,0,1-8.63-9.42,35.07,35.07,0,0,1,0-28.52,22.7,22.7,0,0,1,21.29-13.08,25.78,25.78,0,0,1,8.63,1.47,20.8,20.8,0,0,1,7.5,4.62,21.75,21.75,0,0,1,5.25,8.17A34.45,34.45,0,0,1,739.89,145v3.63H698.07v-7.67h31.79a15.18,15.18,0,0,0-1.65-7.18,12.47,12.47,0,0,0-4.6-4.95,13,13,0,0,0-6.94-1.81,13.41,13.41,0,0,0-7.52,2.1,14.35,14.35,0,0,0-4.93,5.48,15.73,15.73,0,0,0-1.73,7.32v6a19.7,19.7,0,0,0,1.87,9,13.14,13.14,0,0,0,5.22,5.63,15.43,15.43,0,0,0,7.84,1.94,16,16,0,0,0,5.31-.84,11.33,11.33,0,0,0,4.15-2.52,11.09,11.09,0,0,0,2.67-4.15l9.69,1.75a17.44,17.44,0,0,1-4.16,7.49,20.17,20.17,0,0,1-7.5,5A27.86,27.86,0,0,1,717.32,172.89Z"/>
          <path class="cls-1" d="M811.74,126.23h-15a14.68,14.68,0,0,0-1.68-5.19,13.25,13.25,0,0,0-3.25-3.88,14.25,14.25,0,0,0-4.58-2.47,17.72,17.72,0,0,0-5.6-.86,16.71,16.71,0,0,0-9.48,2.69,17.41,17.41,0,0,0-6.27,7.81,31,31,0,0,0-2.23,12.42,31.21,31.21,0,0,0,2.25,12.6,16.2,16.2,0,0,0,15.63,10.31,18.81,18.81,0,0,0,5.53-.78,14.52,14.52,0,0,0,4.54-2.31,13.26,13.26,0,0,0,3.31-3.72,14.69,14.69,0,0,0,1.83-5l15,.07a27,27,0,0,1-2.89,9.3,28.09,28.09,0,0,1-6.2,8,29.09,29.09,0,0,1-9.25,5.55,34.06,34.06,0,0,1-12.11,2,33,33,0,0,1-16.77-4.24,30,30,0,0,1-11.64-12.3q-4.27-8.06-4.27-19.49t4.32-19.53a30.25,30.25,0,0,1,11.71-12.28,33,33,0,0,1,16.65-4.23,35.86,35.86,0,0,1,11.32,1.72,29,29,0,0,1,9.27,5,26.19,26.19,0,0,1,6.59,8A30,30,0,0,1,811.74,126.23Z"/>
          <path class="cls-1" d="M845.06,172.85a26.65,26.65,0,0,1-13.78-3.41,23,23,0,0,1-9-9.52,33.72,33.72,0,0,1,0-28.46,23.08,23.08,0,0,1,9-9.53,29.65,29.65,0,0,1,27.57,0,23.08,23.08,0,0,1,9,9.53,33.72,33.72,0,0,1,0,28.46,23,23,0,0,1-9,9.52A26.66,26.66,0,0,1,845.06,172.85Zm.07-11.3a9.06,9.06,0,0,0,6.07-2.07,12.85,12.85,0,0,0,3.68-5.67,27.46,27.46,0,0,0,0-16.38,12.94,12.94,0,0,0-3.68-5.68,9,9,0,0,0-6.07-2.09,9.26,9.26,0,0,0-6.15,2.09,12.68,12.68,0,0,0-3.73,5.68,27.46,27.46,0,0,0,0,16.38,12.59,12.59,0,0,0,3.73,5.67A9.3,9.3,0,0,0,845.13,161.55Z"/>
          <path class="cls-1" d="M886.67,112.43a7.91,7.91,0,0,1-5.58-2.16,7,7,0,0,1,0-10.43,7.84,7.84,0,0,1,5.55-2.17,8,8,0,0,1,5.6,2.15,7,7,0,0,1,0,10.43A7.86,7.86,0,0,1,886.67,112.43Zm-7.36,59.4V119.21H893.9v52.62Z"/>
          <path class="cls-1" d="M919.31,141.41v30.42H904.72V119.21h13.91v9.28h.62a14.7,14.7,0,0,1,5.85-7.27,17.77,17.77,0,0,1,10-2.69,18.61,18.61,0,0,1,9.56,2.39,16.25,16.25,0,0,1,6.33,6.84,23,23,0,0,1,2.27,10.57v33.5h-14.6v-30.9c0-3.22-.8-5.74-2.46-7.55a8.89,8.89,0,0,0-6.89-2.73,10.34,10.34,0,0,0-5.19,1.27,8.69,8.69,0,0,0-3.49,3.68A12.94,12.94,0,0,0,919.31,141.41Z"/>
        </g>
      </g>
    </g>
  </g>
</svg>
