<?xml version="1.0" encoding="utf-8"?>
<!-- Generator: Adobe Illustrator 22.0.1, SVG Export Plug-In . SVG Version: 6.00 Build 0)  -->
<svg version="1.1" id="Warstwa_1" xmlns="http://www.w3.org/2000/svg" xmlns:xlink="http://www.w3.org/1999/xlink" x="0px" y="0px"
	 viewBox="0 0 638.5 94.5" style="enable-background:new 0 0 638.5 94.5;" xml:space="preserve">
<style type="text/css">
	.st0{fill:url(#SVGID_1_);}
	.st1{fill:url(#SVGID_2_);}
	.st2{fill:url(#SVGID_3_);}
</style>
<g>
	<g>
		<linearGradient id="SVGID_1_" gradientUnits="userSpaceOnUse" x1="1.632400e-03" y1="73.2509" x2="42.4954" y2="73.2509">
			<stop  offset="0" style="stop-color:#c1272d"/>
			<stop  offset="1" style="stop-color:#070408"/>
		</linearGradient>
		<path class="st0" d="M42.5,58.3L7.6,93.2c-0.9,0.9-2,1.3-3.2,1.3s-2.3-0.4-3.2-1.3c-1.7-1.7-1.7-4.6,0-6.3L36.2,52L42.5,58.3z"/>
		<linearGradient id="SVGID_2_" gradientUnits="userSpaceOnUse" x1="52.0143" y1="21.2422" x2="94.4479" y2="21.2422">
			<stop  offset="0" style="stop-color:#070408"/>
			<stop  offset="1" style="stop-color:#61142A"/>
		</linearGradient>
		<path class="st1" d="M93,7.8L58.3,42.5c0,0,0,0,0,0L52,36.2c0,0,0,0,0,0L86.9,1.3c1.8-1.8,4.6-1.7,6.4,0.1C95,3.2,94.8,6,93,7.8z"
			/>
	</g>
	<g>
		<linearGradient id="SVGID_3_" gradientUnits="userSpaceOnUse" x1="9.094947e-13" y1="47.2487" x2="94.5002" y2="47.2487">
			<stop  offset="0" style="stop-color:#FA78AF"/>
			<stop  offset="1" style="stop-color:#FA5BAA"/>
		</linearGradient>
		<path class="st2" d="M90,94.5c1.1,0,2.3-0.4,3.2-1.3c1.7-1.7,1.7-4.6,0-6.3L7.6,1.3C5.9-0.4,3-0.4,1.3,1.3c-1.7,1.7-1.7,4.6,0,6.3
			l85.6,85.6C87.8,94.1,88.9,94.5,90,94.5z"/>
	</g>
</g>
<g>
	<path d="M156.4,71.1h32.1v2.4H154V20.2h34.2v2.4h-31.8v22.3h28.2v2.4h-28.2V71.1z"/>
	<path d="M212.2,53.8l16.7,19.7h-3.3l-15-17.8l-14.9,17.8h-3.3L209,53.9l-16.3-19.3h3.3L210.6,52l14.7-17.4h3.2L212.2,53.8z"/>
	<path d="M237.8,69.2c-3-3.3-4.4-8.4-4.4-15.1c0-13.3,6.3-20,18.9-20c1.5,0,3.1,0.1,4.6,0.3c1.6,0.2,3,0.5,4.3,1v2.4
		c-3-0.9-6-1.4-8.9-1.4c-5.5,0-9.6,1.4-12.2,4.2c-2.7,2.8-4,7.2-4,13.3c0,6.2,1.2,10.7,3.7,13.6s6.2,4.3,11.2,4.3
		c3.1,0,6.5-0.7,10.3-2v2.4c-3.5,1.3-7,1.9-10.5,1.9C245,74.1,240.7,72.5,237.8,69.2z"/>
	<path d="M270,15.3h2.4v24h0.2c2-1.7,4.2-3,6.7-3.9c2.5-0.9,5.2-1.3,8-1.3c4.4,0,7.8,1.1,10.2,3.3c2.4,2.2,3.7,5.8,3.7,10.6v25.5
		h-2.4V48.1c0-4.1-1-7.1-3-8.9c-2-1.8-4.8-2.7-8.5-2.7c-2.7,0-5.4,0.5-8,1.5c-2.6,1-4.9,2.6-6.9,4.7v30.7H270V15.3z"/>
	<path d="M334.5,35.2c2.1,0.8,3.8,2.1,4.9,4s1.7,4.4,1.7,7.6v26.6h-2.2l-0.2-4.8h-0.3c-1.5,1.6-3.5,2.9-5.9,3.9
		c-2.4,1-5,1.5-7.6,1.5c-3.9,0-7-0.9-9.1-2.7s-3.3-4.3-3.3-7.5c0-2.1,0.5-3.9,1.4-5.4c1-1.5,2.5-2.7,4.5-3.6c2.1-0.9,4.7-1.6,8.1-2
		l12.1-1.5V47c0-2.8-0.5-4.9-1.4-6.4c-0.9-1.5-2.2-2.6-4-3.2c-1.7-0.6-3.9-0.9-6.7-0.9c-4.2,0-8.1,0.7-11.9,2V36
		c1.7-0.6,3.5-1.1,5.6-1.4c2.1-0.3,4.2-0.5,6.2-0.5C329.8,34,332.4,34.4,334.5,35.2z M332.3,70.2c2.4-1,4.5-2.5,6.3-4.5V53.8
		l-12.2,1.5c-4.1,0.5-7,1.4-8.7,2.8c-1.7,1.3-2.6,3.2-2.6,5.7c0,2.5,0.8,4.5,2.4,5.9c1.6,1.4,4,2.1,7.3,2.1
		C327.5,71.7,330,71.2,332.3,70.2z"/>
	<path d="M354.6,34.6h2.2l0.2,4.8h0.3c2-1.8,4.3-3.1,6.8-4c2.5-0.9,5.2-1.4,7.9-1.4c4.4,0,7.9,1.1,10.3,3.4
		c2.4,2.3,3.7,5.9,3.7,10.8v25.2h-2.4V48.2c0-4.2-1-7.2-3-9c-2-1.9-4.8-2.8-8.6-2.8c-2.6,0-5.3,0.5-7.9,1.5c-2.7,1-5,2.6-7,4.8v30.8
		h-2.4V34.6z"/>
	<path d="M405.5,89.5c-2.3-0.4-4.3-0.9-6.1-1.5v-2.4c4.3,1.4,8.4,2.2,12.4,2.2c3.6,0,6.4-0.5,8.6-1.5c2.2-1,3.9-2.5,4.9-4.7
		c1.1-2.2,1.6-5.1,1.6-8.8V69h-0.2c-1.6,1.6-3.5,2.9-5.7,3.8c-2.2,0.9-4.7,1.4-7.4,1.4c-3.3,0-6.2-0.7-8.7-2
		c-2.5-1.3-4.5-3.4-5.9-6.3c-1.4-2.9-2.1-6.5-2.1-11c0-13.9,6.8-20.8,20.3-20.8c4.1,0,8.2,0.6,12.2,1.7v36.7c0,4.2-0.7,7.5-2,10.1
		c-1.3,2.6-3.3,4.5-5.9,5.7c-2.6,1.2-5.9,1.8-9.9,1.8C409.8,90.1,407.8,89.9,405.5,89.5z M421.1,70.3c2.3-1,4.3-2.5,5.9-4.5V37.6
		c-2.9-0.8-6.3-1.2-10.1-1.2c-5.8,0-10.2,1.5-13.1,4.4c-2.9,3-4.4,7.5-4.4,13.7c0,6,1.3,10.4,3.8,13.1c2.6,2.7,6,4.1,10.4,4.1
		C416.3,71.8,418.8,71.3,421.1,70.3z"/>
	<path d="M473,55.1h-29.3c0.3,11.1,5.7,16.6,16.3,16.6c3.3,0,7-0.7,11.2-2v2.4c-4,1.3-7.7,1.9-11.3,1.9c-6,0-10.7-1.7-13.9-5
		c-3.2-3.3-4.8-8.4-4.8-15.1c0-4.4,0.6-8.1,1.9-11.1c1.3-3,3.2-5.2,5.6-6.7s5.3-2.2,8.6-2.2c5.1,0,9,1.7,11.7,5.1
		c2.7,3.4,4.1,8.4,4.1,14.9V55.1z M443.7,52.8h26.8c-0.1-5.5-1.3-9.7-3.5-12.3c-2.2-2.7-5.5-4-9.7-4C448.5,36.4,444,41.9,443.7,52.8
		z"/>
	<path d="M487.1,67.7c-4.4-4.3-6.6-11.2-6.6-20.8c0-9.3,2.2-16.2,6.7-20.6c4.5-4.5,10.7-6.7,18.7-6.7c2.5,0,4.8,0.2,6.9,0.5
		c2.1,0.3,4.3,0.8,6.6,1.5V24c-4.5-1.3-9-2-13.6-2c-7.3,0-13,2-16.8,5.9c-3.9,4-5.8,10.3-5.8,18.9c0,9,1.9,15.4,5.8,19.2
		c3.9,3.9,9.3,5.8,16.4,5.8c2.5,0,4.8-0.2,7-0.5c2.2-0.4,4.6-1,7.1-1.9v2.4c-2.2,0.8-4.5,1.4-6.8,1.8s-4.8,0.6-7.4,0.6
		C497.6,74.1,491.5,72,487.1,67.7z"/>
	<path d="M529.4,69.2c-3-3.3-4.5-8.3-4.5-15.2c0-4.5,0.7-8.3,2.1-11.2c1.4-3,3.4-5.2,5.9-6.6c2.5-1.4,5.5-2.1,9-2.1
		c5.4,0,9.5,1.6,12.5,4.9c3,3.3,4.5,8.3,4.5,15.1c0,4.5-0.7,8.3-2.1,11.3c-1.4,3-3.4,5.2-6,6.7c-2.6,1.4-5.6,2.2-9,2.2
		C536.6,74.1,532.4,72.5,529.4,69.2z M556.4,54.1c0-6.2-1.3-10.7-3.8-13.5c-2.5-2.8-6.1-4.2-10.7-4.2c-9.6,0-14.5,5.9-14.5,17.6
		c0,11.9,4.8,17.8,14.5,17.8C551.6,71.8,556.4,65.9,556.4,54.1z"/>
	<path d="M569.3,23.9c-0.4-0.4-0.6-0.9-0.6-1.6c0-0.7,0.2-1.2,0.6-1.7c0.4-0.4,1-0.6,1.6-0.6c0.6,0,1.2,0.2,1.6,0.6
		c0.4,0.4,0.6,1,0.6,1.7c0,0.7-0.2,1.2-0.6,1.6c-0.4,0.4-1,0.6-1.6,0.6C570.2,24.5,569.7,24.3,569.3,23.9z M569.7,73.5V34.6h2.4
		v38.9H569.7z"/>
	<path d="M586.2,34.6h2.2l0.2,4.8h0.3c2-1.8,4.3-3.1,6.8-4c2.5-0.9,5.2-1.4,7.9-1.4c4.4,0,7.9,1.1,10.3,3.4
		c2.4,2.3,3.7,5.9,3.7,10.8v25.2h-2.4V48.2c0-4.2-1-7.2-3-9c-2-1.9-4.8-2.8-8.6-2.8c-2.6,0-5.3,0.5-7.9,1.5c-2.7,1-5,2.6-7,4.8v30.8
		h-2.4V34.6z"/>
</g>
</svg>
