<?xml version="1.0" encoding="UTF-8"?>
<svg width="250px" height="350px" viewBox="0 0 250 350" version="1.1" xmlns="http://www.w3.org/2000/svg" xmlns:xlink="http://www.w3.org/1999/xlink">
    <!-- Generator: Sketch 50.2 (55047) - http://www.bohemiancoding.com/sketch -->
    <title>1. Blockchain</title>
    <desc>Created with Sketch.</desc>
    <defs>
        <linearGradient x1="-18.4326779%" y1="-11.5062338%" x2="104.509756%" y2="67.2575561%" id="linearGradient-1">
            <stop stop-color="#F65AAB" offset="0%"></stop>
            <stop stop-color="#000082" offset="100%"></stop>
        </linearGradient>
    </defs>
    <g id="1.-Blockchain" stroke="none" stroke-width="1" fill="none" fill-rule="evenodd" opacity="0.699999988">
        <path d="M125.1,59 L153.9,75.6 L153.9,108.9 L125.1,125.5 L96.3,108.9 L96.3,75.6 L125.1,59 Z M125.1,92.9 L153.9,76.3 L125.1,92.9 Z M97.1,76.3 L125.9,92.9 L97.1,76.3 Z M125.1,92.9 L125.1,125.6 L125.1,92.9 Z M25.1,117.1 L25.1,150.4 L53.9,167 L82.7,150.4 L82.7,117.1 L53.9,100.5 L25.1,117.1 Z M25.1,117.7 L53.9,134.3 L25.1,117.7 Z M53.9,134.4 L53.9,165.7 L53.9,134.4 Z M168,116.9 L168,150.2 L196.8,166.8 L225.6,150.2 L225.6,116.9 L196.8,100.3 L168,116.9 Z M196.8,134.1 L225.6,117.5 L196.8,134.1 Z M196.9,134.2 L196.9,165.5 L196.9,134.2 Z M96.3,240.7 L96.3,274 L125.1,290.6 L153.9,274 L153.9,240.7 L125.1,224 L96.3,240.7 Z M125.1,259 L153.9,242.4 L125.1,259 Z M125.1,258 L125.1,290 L125.1,258 Z M96.3,158.4 L96.3,191.7 L125.1,208.3 L153.9,191.7 L153.9,158.4 L125.1,141.7 L96.3,158.4 Z M125.1,175.7 L153.9,159.1 L125.1,175.7 Z M97.1,159.1 L125.9,175.7 L97.1,159.1 Z M125.1,175.6 L125.1,207.6 L125.1,175.6 Z M25,199.7 L25,233 L53.8,249.6 L82.6,233 L82.6,199.7 L53.8,183.1 L25,199.7 Z M25,200.4 L53.8,217 L25,200.4 Z M53.8,217 L53.8,249 L53.8,217 Z M168.3,199.6 L168.3,232.9 L197.1,249.5 L225.9,232.9 L225.9,199.6 L197.1,183 L168.3,199.6 Z M197.1,216.9 L225.9,200.3 L197.1,216.9 Z M197.1,216.9 L197.1,248.9 L197.1,216.9 Z M197.2,217.1 L197.2,134.4 L125.6,93 L54,134.4 L54,217.1 L125.6,258.5 L197.2,217.1 Z M197.1,217 L125.5,175.6 L197.1,217 Z M126.1,175.6 L54.5,217 L126.1,175.6 Z" id="Shape" stroke="url(#linearGradient-1)" stroke-width="5"></path>
    </g>
</svg>