<?xml version="1.0" encoding="UTF-8"?>
<svg width="235px" height="350px" viewBox="0 0 235 350" version="1.1" xmlns="http://www.w3.org/2000/svg" xmlns:xlink="http://www.w3.org/1999/xlink">
    <!-- Generator: Sketch 50.2 (55047) - http://www.bohemiancoding.com/sketch -->
    <title>4. Ticket</title>
    <desc>Created with Sketch.</desc>
    <defs>
        <linearGradient x1="34.7903073%" y1="-361.103516%" x2="-2.42208963%" y2="352.900391%" id="linearGradient-1">
            <stop stop-color="#F65AAB" offset="0%"></stop>
            <stop stop-color="#000082" offset="100%"></stop>
        </linearGradient>
        <linearGradient x1="144.413204%" y1="-289.067383%" x2="-105.08993%" y2="496.870117%" id="linearGradient-2">
            <stop stop-color="#F65AAB" offset="0%"></stop>
            <stop stop-color="#000082" offset="100%"></stop>
        </linearGradient>
        <linearGradient x1="14.0353733%" y1="-376.023707%" x2="24.1048177%" y2="405.569774%" id="linearGradient-3">
            <stop stop-color="#F65AAB" offset="0%"></stop>
            <stop stop-color="#000082" offset="100%"></stop>
        </linearGradient>
        <linearGradient x1="123.263889%" y1="-83.122306%" x2="160.422092%" y2="300.084186%" id="linearGradient-4">
            <stop stop-color="#F65AAB" offset="0%"></stop>
            <stop stop-color="#000082" offset="100%"></stop>
        </linearGradient>
        <linearGradient x1="-32.1096238%" y1="-32.8443878%" x2="104.509756%" y2="67.2575561%" id="linearGradient-5">
            <stop stop-color="#F65AAB" offset="0%"></stop>
            <stop stop-color="#000082" offset="100%"></stop>
        </linearGradient>
    </defs>
    <g id="4.-Ticket" stroke="none" stroke-width="1" fill="none" fill-rule="evenodd" opacity="0.699999988">
        <g id="Group-2" transform="translate(41.000000, 72.000000)">
            <g id="Group" transform="translate(76.500000, 45.000000) rotate(270.000000) translate(-76.500000, -45.000000) translate(32.000000, 18.000000)">
                <g id="Ticket">
                    <path d="M3.70833333,54 C1.66133333,54 0,52.4005289 0,50.4297521 L0,37.9338843 C0,35.9631074 1.66133333,34.3636364 3.70833333,34.3636364 C5.75533333,34.3636364 7.41666667,35.9631074 7.41666667,37.9338843 L7.41666667,46.8595041 L81.5833333,46.8595041 L81.5833333,37.9338843 C81.5833333,35.9631074 83.2446667,34.3636364 85.2916667,34.3636364 C87.3386667,34.3636364 89,35.9631074 89,37.9338843 L89,50.4297521 C89,52.4005289 87.3386667,54 85.2916667,54 L3.70833333,54 Z" id="Fill-1" fill="url(#linearGradient-1)"></path>
                    <path d="M81.5833333,16.0661157 L81.5833333,7.14049587 L7.41666667,7.14049587 L7.41666667,16.0661157 C7.41666667,18.0368926 5.75533333,19.6363636 3.70833333,19.6363636 C1.66133333,19.6363636 0,18.0368926 0,16.0661157 L0,3.57024793 C0,1.59947107 1.66133333,0 3.70833333,0 L85.2916667,0 C87.3386667,0 89,1.59947107 89,3.57024793 L89,16.0661157 C89,18.0368926 87.3386667,19.6363636 85.2916667,19.6363636 C83.2446667,19.6363636 81.5833333,18.0368926 81.5833333,16.0661157 Z" id="Fill-4" fill="url(#linearGradient-2)"></path>
                    <path d="M0,37.6772727 C0,35.7126545 1.57735385,34.1181818 3.52087912,34.1181818 C7.40440879,34.1181818 10.5626374,30.9256773 10.5626374,27 C10.5626374,23.0743227 7.40440879,19.8818182 3.52087912,19.8818182 C1.57735385,19.8818182 0,18.2873455 0,16.3227273 C0,14.3581091 1.57735385,12.7636364 3.52087912,12.7636364 C11.286178,12.7636364 17.6043956,19.150425 17.6043956,27 C17.6043956,34.849575 11.286178,41.2363636 3.52087912,41.2363636 C1.57735385,41.2363636 0,39.6418909 0,37.6772727 Z" id="Fill-5" fill="url(#linearGradient-3)"></path>
                    <path d="M70.4175824,27 C70.4175824,19.150425 76.7358,12.7636364 84.5010989,12.7636364 C86.4446242,12.7636364 88.021978,14.3581091 88.021978,16.3227273 C88.021978,18.2873455 86.4446242,19.8818182 84.5010989,19.8818182 C80.6175692,19.8818182 77.4593407,23.0743227 77.4593407,27 C77.4593407,30.9256773 80.6175692,34.1181818 84.5010989,34.1181818 C86.4446242,34.1181818 88.021978,35.7126545 88.021978,37.6772727 C88.021978,39.6418909 86.4446242,41.2363636 84.5010989,41.2363636 C76.7358,41.2363636 70.4175824,34.849575 70.4175824,27 Z" id="Fill-6" fill="url(#linearGradient-4)"></path>
                </g>
            </g>
            <path d="M146.301177,63 C127.303119,63 113.681083,63 105.435069,63 C81.0946687,63 61.6064944,63 46.9705463,63 C38.0212745,63 24.5973667,63 6.69882296,63 C3.00107269,63 0,66.1833689 0,70.1163239 L0,199.883676 C0,203.811887 3.00107269,207 6.69882296,207 L146.301177,207 C150.003393,207 153,203.811887 153,199.883676 L153,70.1163239 C153,66.1833689 150.003393,63 146.301177,63 Z M9.74522293,72.7959184 L45.5013318,72.7959184 L106.286088,72.7959184 L143.254777,72.7959184 L143.254777,117.857143 L9.74522293,117.857143 L9.74522293,72.7959184 Z M49.7006369,63 L64.0552792,63 L88.4579186,63 L103.299363,63 L103.299363,72.7959184 L49.7006369,72.7959184 L49.7006369,63 Z M9.74522293,198.183673 L9.74522293,127.653061 L143.254777,127.653061 L143.254777,198.183673 L9.74522293,198.183673 Z M40.3297193,94.3469388 L113.440833,94.3469388 C116.338625,94.3469388 118.68775,96.6960634 118.68775,99.5938555 C118.68775,102.491648 116.338625,104.840772 113.440833,104.840772 L40.3297193,104.840772 C37.4319272,104.840772 35.0828025,102.491648 35.0828025,99.5938555 C35.0828025,96.6960634 37.4319272,94.3469388 40.3297193,94.3469388 Z" id="voting" fill="url(#linearGradient-5)"></path>
        </g>
    </g>
</svg>