<?xml version="1.0" encoding="UTF-8"?>
<svg width="250px" height="350px" viewBox="0 0 250 350" version="1.1" xmlns="http://www.w3.org/2000/svg" xmlns:xlink="http://www.w3.org/1999/xlink">
    <!-- Generator: Sketch 50.2 (55047) - http://www.bohemiancoding.com/sketch -->
    <title>2. Wallet</title>
    <desc>Created with Sketch.</desc>
    <defs>
        <linearGradient x1="-18.4326779%" y1="-11.5062338%" x2="104.509756%" y2="67.2575561%" id="linearGradient-1">
            <stop stop-color="#F65AAB" offset="0%"></stop>
            <stop stop-color="#000082" offset="100%"></stop>
        </linearGradient>
    </defs>
    <g id="2.-Wallet" stroke="none" stroke-width="1" fill="none" fill-rule="evenodd" opacity="0.699999988">
        <path d="M224,168.204829 L214.405013,168.204829 L214.405013,124.045661 C214.405013,113.458633 205.796253,104.846964 195.2128,104.846964 L182.214923,104.846964 L168.913936,80.92533 C166.886984,77.269609 163.028683,75 158.846368,75 C156.895566,75 154.961936,75.5018681 153.253025,76.4503392 L102.20892,104.846964 L45.192213,104.846964 C34.6087606,104.846964 26,113.458633 26,124.045661 L26,255.877906 C26,266.461947 34.6087606,275.077349 45.192213,275.077349 L195.2128,275.077349 C205.796253,275.077349 214.405013,266.461947 214.405013,255.877906 L214.405013,217.160124 L224,217.160124 L224,168.204829 Z M195.2128,112.525099 C201.124184,112.525099 205.950794,117.018013 206.601061,122.767839 L192.177225,122.767839 L186.487574,112.525099 L195.2128,112.525099 Z M156.988888,83.1628255 C158.788135,82.1531146 161.211518,82.8596135 162.203717,84.6534933 L183.393019,122.761864 L85.7962075,122.761864 L156.988888,83.1628255 Z M206.726486,255.877906 C206.726486,262.228928 201.561677,267.395481 195.2128,267.395481 L45.192213,267.395481 C38.8433361,267.395481 33.6755414,262.228928 33.6755414,255.877906 L33.6755414,124.045661 C33.6755414,117.694639 38.8433361,112.525099 45.192213,112.525099 L88.406235,112.525099 L69.9956865,122.767839 L47.5924528,122.767839 C45.4691925,122.767839 43.7513225,124.486289 43.7513225,126.60728 C43.7513225,128.72827 45.4691925,130.445973 47.5924528,130.445973 L206.726486,130.445973 L206.726486,168.207816 L178.657492,168.207816 C165.621539,168.207816 155.011957,178.820983 155.011957,191.861339 L155.011957,193.512575 C155.011957,206.552932 165.621539,217.166098 178.657492,217.166098 L206.726486,217.166098 L206.726486,255.877906 Z M216.324459,209.481243 L178.657492,209.481243 C169.850142,209.481243 162.687498,202.316926 162.687498,193.506601 L162.687498,191.855365 C162.687498,183.048027 169.850142,175.882963 178.657492,175.882963 L216.324459,175.882963 L216.324459,209.481243 Z M190.413067,192.995771 C190.413067,197.681367 186.621958,201.473757 181.937944,201.473757 C177.254676,201.473757 173.463567,197.681367 173.463567,192.995771 C173.463567,188.313908 177.257663,184.518531 181.937944,184.518531 C186.621958,184.518531 190.413067,188.316896 190.413067,192.995771 Z" id="Fill-1" fill="url(#linearGradient-1)"></path>
    </g>
</svg>