<?xml version="1.0" encoding="UTF-8"?>
<svg width="235px" height="350px" viewBox="0 0 235 350" version="1.1" xmlns="http://www.w3.org/2000/svg" xmlns:xlink="http://www.w3.org/1999/xlink">
    <!-- Generator: Sketch 50.2 (55047) - http://www.bohemiancoding.com/sketch -->
    <title>5. Safety</title>
    <desc>Created with Sketch.</desc>
    <defs>
        <linearGradient x1="-18.4326779%" y1="-11.5062338%" x2="104.509756%" y2="67.2575561%" id="linearGradient-1">
            <stop stop-color="#F65AAB" offset="0%"></stop>
            <stop stop-color="#000082" offset="100%"></stop>
        </linearGradient>
    </defs>
    <g id="5.-Safety" stroke="none" stroke-width="1" fill="none" fill-rule="evenodd" opacity="0.699999988">
        <g id="Group" transform="translate(46.000000, 72.000000)" fill="url(#linearGradient-1)" stroke="url(#linearGradient-1)">
            <path d="M18.5,74.5090242 L18.5,52.1474457 C18.5,23.1203804 42.0525856,-0.5 70.9964413,-0.5 C99.9469691,-0.5 123.5,23.1189142 123.5,52.1474457 L123.5,74.5090242 C123.5,76.6262071 121.78403,78.3474559 119.674156,78.3474559 C117.557491,78.3474559 115.844244,76.6285757 115.844244,74.5090242 L115.844244,52.1474457 C115.844244,27.3498605 95.7238105,7.17584379 70.9964413,7.17584379 C46.2713123,7.17584379 26.1567727,27.3486342 26.1567727,52.1474457 L26.1567727,74.5090242 C26.1567727,76.6265701 24.4404411,78.3474559 22.3288948,78.3474559 C20.2151339,78.3474559 18.5,76.6274083 18.5,74.5090242 Z M34.1480422,74.5090242 L34.1480422,52.1525441 C34.1480422,31.7715046 50.6786755,15.1928724 71.0025419,15.1928724 C91.3245936,15.1928724 107.858058,31.7727438 107.858058,52.1525441 L107.858058,74.5090242 C107.858058,76.6263886 106.141908,78.3474559 104.031197,78.3474559 C101.914532,78.3474559 100.201286,76.6285757 100.201286,74.5090242 L100.201286,52.1525441 C100.201286,36.006312 87.1009987,22.8697359 71.0025419,22.8697359 C54.90256,22.8697359 41.8027814,36.0058023 41.8027814,52.1525441 L41.8027814,74.5090242 C41.8027814,76.6268641 40.0881905,78.3474559 37.976937,78.3474559 C35.8631762,78.3474559 34.1480422,76.6274083 34.1480422,74.5090242 Z M81.646825,157.829359 L81.646825,179.819517 C81.646825,185.707849 76.8700156,190.5 70.9964413,190.5 C65.126451,190.5 60.3511414,185.707365 60.3511414,179.819517 L60.3511414,157.840729 C48.6457035,153.395949 40.8392415,142.12069 40.8983631,129.559184 L40.8983647,129.558858 C40.9873686,112.949432 54.4928715,99.5275314 71.1516002,99.5275383 C79.1902337,99.5700445 86.7376836,102.747451 92.3966367,108.471354 C98.0477825,114.207133 101.139922,121.805109 101.098587,129.858565 C101.040491,142.273541 93.2354812,153.423152 81.646825,157.829359 Z M68.0079142,155.050474 L68.0079142,179.819517 C68.0079142,181.476226 69.3484038,182.821097 70.9964413,182.821097 C72.6495324,182.821097 73.9900523,181.477277 73.9900523,179.819517 L73.9900523,155.044356 C73.9900523,153.311166 75.1492211,151.794209 76.8208522,151.337538 C86.5615811,148.697582 93.3960013,139.850664 93.4377598,129.824947 C93.4705825,123.807174 91.1686734,118.148375 86.9515823,113.876292 C82.7196953,109.589291 77.0961093,107.233221 70.9964413,107.202355 C58.6730516,107.202355 48.620722,117.227641 48.5541084,129.595403 C48.5083549,139.739881 55.3409148,148.680606 65.1790296,151.345664 C66.8478599,151.797515 68.0079142,153.316521 68.0079142,155.050474 Z" id="Clip-5"></path>
            <path d="M15.0131421,83.5 L127.987879,83.5 C136.543083,83.5 143.5,90.4765269 143.5,99.0542904 L143.5,191.946733 C143.5,200.522286 136.542225,207.5 127.987879,207.5 L15.0131421,207.5 C6.45861183,207.5 -0.5,200.522102 -0.5,191.946733 L-0.5,99.0542904 C-0.5,90.4767113 6.45775454,83.5 15.0131421,83.5 Z M7.18124126,99.0542904 L7.18124126,191.946733 C7.18124126,196.275194 10.695915,199.796696 15.0131421,199.796696 L127.987879,199.796696 C132.303361,199.796696 135.817738,196.274896 135.817738,191.946733 L135.817738,99.0542904 C135.817738,94.7252736 132.302508,91.2002338 127.987879,91.2002338 L15.0131421,91.2002338 C10.6967683,91.2002338 7.18124126,94.7249753 7.18124126,99.0542904 Z" id="Clip-2"></path>
        </g>
    </g>
</svg>