<svg class="testnet-logo" version="1.1" viewBox="0 0 107.12 20" xmlns="http://www.w3.org/2000/svg">
 <defs>
  <style>.a{fill:#091440;}</style>
 </defs>
 <g transform="matrix(.018868 0 0 .018868 -1.234 -.18868)">
  <polygon class="cls-1" points="597.33 505.02 567.98 540 597.33 574.98 971.82 1019.4 1006.3 990.51 626.68 540 1006.3 89.49 971.82 60.59" fill="#c1272d"/>
  <polygon class="cls-2" points="73.74 1001.8 108.18 1030.7 490.54 574.98 907.74 1070 942.19 1041.1 519.89 540 942.19 38.9 907.74 10 490.54 505.02 108.18 49.34 73.74 78.25 461.19 540" fill="#1a1a1a"/>
 </g>
 <g stroke-width=".56386" aria-label=" TESTNET">
  <path d="m50.484 3.2031c-1.4273 0-2.6052 0.35181-3.5332 1.0566-0.92802 0.69895-1.3926 1.597-1.3926 2.6953 0 0.95739 0.2799 1.7368 0.83789 2.3359 0.56386 0.59323 1.4269 1.0131 2.5898 1.2598 0.57561 0.11747 1.1179 0.21466 1.6289 0.29102 0.51687 0.076356 0.99698 0.17354 1.4375 0.29102 0.58148 0.15271 1.013 0.36652 1.2949 0.64258 0.2878 0.27606 0.43164 0.70563 0.43164 1.2871 0 0.67546-0.30323 1.2158-0.9082 1.6211-0.5991 0.40528-1.4388 0.60742-2.5195 0.60742-0.76356 0-1.5799-0.14967-2.4492-0.44922s-1.6351-0.72523-2.2988-1.2773h-0.12305v2.1836c0.78118 0.34654 1.547 0.60895 2.2988 0.78516 0.75769 0.17621 1.609 0.26367 2.5547 0.26367 0.88104 0 1.6333-0.10496 2.2559-0.31641 0.62847-0.21145 1.1766-0.50495 1.6465-0.88086 0.42877-0.34654 0.76115-0.77028 0.99609-1.2695 0.24082-0.49925 0.36133-1.0046 0.36133-1.5156 0-0.93977-0.24686-1.6706-0.74023-2.1934-0.49338-0.52275-1.2281-0.91344-2.2031-1.1719-0.48163-0.12334-1.0686-0.24386-1.7617-0.36133-0.69308-0.11747-1.2276-0.2166-1.6035-0.29883-0.7107-0.16446-1.2064-0.40354-1.4883-0.71484s-0.42383-0.73892-0.42383-1.2852c0-0.61085 0.28184-1.1104 0.8457-1.498 0.56974-0.38766 1.322-0.58203 2.2559-0.58203 0.85167 0 1.6836 0.1419 2.4941 0.42383 0.81642 0.27606 1.4734 0.62593 1.9727 1.0488h0.12305v-2.0625c-0.59323-0.25844-1.2735-0.47614-2.043-0.65234-0.76944-0.17621-1.615-0.26367-2.5371-0.26367zm-28.713 0.23828v1.5508h4.6855v11.566h1.7461v-11.566h4.6855v-1.5508h-11.117zm12.881 0v13.117h8.6426v-1.5508h-6.8984v-4.8711h6.8984v-1.5508h-6.8984v-3.5938h6.8984v-1.5508h-8.6426zm21.98 0v1.5508h4.6875v11.566h1.7441v-11.566h4.6875v-1.5508h-11.119zm12.881 0v13.117h1.6309v-11.734l6.2188 11.734h2.1602v-13.117h-1.6309v10.713l-5.6738-10.713h-2.7051zm13.498 0v13.117h8.6426v-1.5508h-6.8984v-4.8711h6.8984v-1.5508h-6.8984v-3.5938h6.8984v-1.5508h-8.6426zm9.6465 0v1.5508h4.6875v11.566h1.7441v-11.566h4.6875v-1.5508h-11.119z"/>
 </g>
</svg>
