<svg version="1.1" viewBox="0 0 1160 800" xmlns="http://www.w3.org/2000/svg">
 <defs>
  <style>.cls-1{fill:#fff;}.cls-2{fill:#2f74fb;}.cls-3{fill:#091440;}.cls-4,.cls-5{fill:#ed6d47;}.cls-4{fill-rule:evenodd;}.cls-6{fill:none;}</style>
 </defs>
 <g>
  <g id="_">
   <rect class="cls-1" width="1160" height="800"/>
   <g id="repetitive">
    <rect id="BG" class="cls-2" x="45.6" y="45.41" width="1069.4" height="709.17" rx="17.06"/>
   </g>
   <path class="cls-3" d="m59 45.41h1042a14 14 0 0 1 14 14v353h-1070v-353a14 14 0 0 1 14-14z"/>
   <rect class="cls-3" x="45" y="432.27" width="1070" height="25.99"/>
   <rect class="cls-2" x="45" y="382.27" width="1070" height="10"/>
   <rect class="cls-2" x="45" y="352.27" width="1070" height="10"/>
   <path class="cls-4" d="M85,581.42H95v10H85Zm60-10h10v-10h10v-10h10v-30H165v20H155v-20H145v-10H125v10h20v10H95v-10h20v-10H95v10H85v20H75v-20H65v30H75v10H85v10H95v10h10v-10h30v10h10Zm10,10v10H145v-10Zm-60-30h10v10H95Zm40,0h10v10H135Z"/>
   <path class="cls-4" d="m1060.8 534.54h10v10h-10zm60-10h10v-10h10v-10h10v-30h-10v20h-10v-20h-10v-10h-20v10h20v10h-50v-10h20v-10h-20v10h-10v20h-10v-20h-10v30h10v10h10v10h10v10h10v-10h30v10h10zm10 10v10h-10v-10zm-60-30h10v10h-10zm40 0h10v10h-10z"/>
   <path class="cls-4" d="m196.72 779.48h10v10h-10zm60-10h10v-10h10v-10h10v-30h-10v20h-10v-20h-10v-10h-20v10h20v10h-50v-10h20v-10h-20v10h-10v20h-10v-20h-10v30h10v10h10v10h10v10h10v-10h30v10h10zm10 10v10h-10v-10zm-60-30h10v10h-10zm40 0h10v10h-10z"/>
   <path class="cls-4" d="m970.82 665h10v10h-10zm60-10h10v-10h10v-10h10v-30h-10v20h-10v-20h-10v-10h-20v10h20v10h-50v-10h20v-10h-20v10h-10v20h-10v-20h-10v30h10v10h10v10h10v10h10v-10h30v10h10zm10 10v10h-10v-10zm-60-30h10v10h-10zm40 0h10v10h-10z"/>
   <rect class="cls-5" x="1125" y="723.36" width="10" height="10"/>
   <path class="cls-5" d="m1160 673.36h-25v-10h-10v20h-10v-20h-10v30h10v10h10v10h10v10h10v-10h15zm-25 30v-10h10v10z"/>
   <rect class="cls-5" x="1135" y="653.36" width="20" height="10"/>
   <circle class="cls-3" cx="587.81" cy="415.32" r="172.69"/>
   <path class="cls-3" d="m586.82 660.28a262.09 262.09 0 0 1-159.47-53.48 266.47 266.47 0 0 1-94-135.4 3.72 3.72 0 1 1 7.13-2.12 259 259 0 0 0 91.37 131.58 254.68 254.68 0 0 0 155 52c141.71 0 257-115.28 257-257a3.73 3.73 0 1 1 7.45 0c-0.04 145.8-118.67 264.42-264.48 264.42z"/>
   <path class="cls-2" d="m326.12 399.57a3.73 3.73 0 0 1-3.73-3.72c0-145.85 118.61-264.43 264.43-264.43a262.1 262.1 0 0 1 159.48 53.48 266.44 266.44 0 0 1 94 135.39 3.73 3.73 0 0 1-7.14 2.13 259 259 0 0 0-91.36-131.59 254.79 254.79 0 0 0-155-52c-141.7 0-257 115.29-257 257a3.73 3.73 0 0 1-3.68 3.74z"/>
   <path class="cls-3" d="m583.1 623.78a3.72 3.72 0 0 1 3.72-3.72 3.72 3.72 0 0 1 3.72 3.72 3.72 3.72 0 0 1-3.72 3.73 3.72 3.72 0 0 1-3.72-3.73zm-12.91 3.13a3.72 3.72 0 0 1-3.45-4 3.74 3.74 0 0 1 4-3.46 3.73 3.73 0 0 1 3.44 4 3.72 3.72 0 0 1-3.71 3.46 1.23 1.23 0 0 1-0.28 0zm-16.55-1.77a3.74 3.74 0 0 1-3.16-4.22 3.74 3.74 0 0 1 4.22-3.15 3.72 3.72 0 0 1 3.16 4.21 3.74 3.74 0 0 1-3.68 3.21 3.29 3.29 0 0 1-0.54-0.05zm-16.37-2.95a3.73 3.73 0 0 1-2.84-4.44 3.71 3.71 0 0 1 4.42-2.84 3.72 3.72 0 0 1 2.84 4.44 3.72 3.72 0 0 1-3.63 2.93 3.42 3.42 0 0 1-0.79-0.09zm-16.13-4.13a3.73 3.73 0 0 1-2.52-4.63 3.73 3.73 0 0 1 4.63-2.52 3.74 3.74 0 0 1 2.52 4.64 3.74 3.74 0 0 1-3.58 2.66 3.46 3.46 0 0 1-1.05-0.15zm-15.79-5.28a3.74 3.74 0 0 1-2.18-4.8 3.73 3.73 0 0 1 4.8-2.18 3.72 3.72 0 0 1 2.17 4.8 3.71 3.71 0 0 1-3.48 2.41 3.73 3.73 0 0 1-1.31-0.23zm-15.35-6.43a3.73 3.73 0 0 1-1.82-4.94 3.71 3.71 0 0 1 4.93-1.83 3.73 3.73 0 0 1 1.84 4.94 3.73 3.73 0 0 1-3.38 2.18 3.81 3.81 0 0 1-1.57-0.35zm-14.87-7.52a3.73 3.73 0 0 1-1.46-5.06 3.72 3.72 0 0 1 5.05-1.46 3.73 3.73 0 0 1 1.48 5.06 3.72 3.72 0 0 1-3.28 1.92 3.79 3.79 0 0 1-1.82-0.46zm-14.28-8.56a3.74 3.74 0 0 1-1.11-5.16 3.74 3.74 0 0 1 5.16-1.09 3.73 3.73 0 0 1 1.1 5.16 3.74 3.74 0 0 1-3.13 1.7 3.73 3.73 0 0 1-2.05-0.61zm-13.63-9.57a3.72 3.72 0 0 1-0.73-5.21 3.72 3.72 0 0 1 5.21-0.73 3.72 3.72 0 0 1 0.73 5.21 3.73 3.73 0 0 1-3 1.49 3.69 3.69 0 0 1-2.24-0.76zm-12.92-10.52a3.72 3.72 0 0 1-0.34-5.26 3.75 3.75 0 0 1 5.26-0.34 3.75 3.75 0 0 1 0.34 5.26 3.74 3.74 0 0 1-2.8 1.27 3.67 3.67 0 0 1-2.49-0.93zm-12.13-11.39a3.75 3.75 0 0 1 0-5.28 3.75 3.75 0 0 1 5.28 0 3.72 3.72 0 0 1 0 5.26 3.72 3.72 0 0 1-2.63 1.09 3.74 3.74 0 0 1-2.68-1.07zm-11.27-12.25a3.72 3.72 0 0 1 0.4-5.26 3.73 3.73 0 0 1 5.26 0.4 3.73 3.73 0 0 1-0.41 5.26 3.71 3.71 0 0 1-2.42 0.9 3.75 3.75 0 0 1-2.86-1.3zm-10.37-13a3.73 3.73 0 0 1 0.77-5.21 3.73 3.73 0 0 1 5.22 0.79 3.72 3.72 0 0 1-0.78 5.2 3.73 3.73 0 0 1-2.22 0.73 3.74 3.74 0 0 1-3.02-1.53zm-9.42-13.72a3.73 3.73 0 0 1 1.15-5.14 3.71 3.71 0 0 1 5.14 1.15 3.72 3.72 0 0 1-1.15 5.14 3.8 3.8 0 0 1-2 0.58 3.74 3.74 0 0 1-3.17-1.75zm-8.4-14.36a3.72 3.72 0 0 1 1.52-5 3.71 3.71 0 0 1 5 1.51 3.71 3.71 0 0 1-1.52 5 3.68 3.68 0 0 1-1.75 0.45 3.72 3.72 0 0 1-3.28-1.98zm-7.35-14.91a3.71 3.71 0 0 1 1.88-4.91 3.73 3.73 0 0 1 4.92 1.87 3.71 3.71 0 0 1-1.88 4.92 3.72 3.72 0 0 1-1.52 0.33 3.75 3.75 0 0 1-3.43-2.23zm-6.25-15.42a3.73 3.73 0 0 1 2.23-4.77 3.71 3.71 0 0 1 4.77 2.22 3.74 3.74 0 0 1-2.22 4.78 3.85 3.85 0 0 1-1.28 0.23 3.72 3.72 0 0 1-3.53-2.48zm-5.11-15.86a3.73 3.73 0 0 1 2.57-4.6 3.71 3.71 0 0 1 4.6 2.56 3.71 3.71 0 0 1-2.56 4.6 3.36 3.36 0 0 1-1 0.15 3.74 3.74 0 0 1-3.61-2.71zm-4-16.16a3.73 3.73 0 0 1 2.89-4.41 3.74 3.74 0 0 1 4.41 2.89 3.74 3.74 0 0 1-2.9 4.41 5.24 5.24 0 0 1-0.77 0.07 3.71 3.71 0 0 1-3.63-2.96zm-2.79-16.42a3.74 3.74 0 0 1 3.21-4.18 3.72 3.72 0 0 1 4.17 3.2 3.71 3.71 0 0 1-3.19 4.18h-0.51a3.71 3.71 0 0 1-3.69-3.2zm-1.6-16.56a3.73 3.73 0 0 1 3.5-3.95 3.72 3.72 0 0 1 3.93 3.5 3.73 3.73 0 0 1-3.49 3.95h-0.22a3.72 3.72 0 0 1-3.73-3.5z"/>
   <path class="cls-2" d="m810.61 382a3.72 3.72 0 0 1 3.5-3.93 3.71 3.71 0 0 1 3.93 3.49 3.71 3.71 0 0 1-3.48 3.94h-0.24a3.72 3.72 0 0 1-3.71-3.5zm-1.55-16a3.72 3.72 0 0 1 3.2-4.18 3.73 3.73 0 0 1 4.19 3.2 3.73 3.73 0 0 1-3.2 4.19h-0.5a3.73 3.73 0 0 1-3.69-3.21zm-2.7-15.88a3.72 3.72 0 0 1 2.89-4.39 3.7 3.7 0 0 1 4.41 2.87 3.72 3.72 0 0 1-2.9 4.41 3.25 3.25 0 0 1-0.75 0.08 3.74 3.74 0 0 1-3.65-2.99zm-3.84-15.64a3.74 3.74 0 0 1 2.58-4.6 3.71 3.71 0 0 1 4.59 2.56 3.73 3.73 0 0 1-2.57 4.6 3.26 3.26 0 0 1-1 0.15 3.75 3.75 0 0 1-3.6-2.73zm-4.95-15.33a3.71 3.71 0 0 1 2.22-4.77 3.71 3.71 0 0 1 4.77 2.22 3.71 3.71 0 0 1-2.22 4.77 3.56 3.56 0 0 1-1.26 0.24 3.73 3.73 0 0 1-3.51-2.48zm-6-14.91a3.7 3.7 0 0 1 1.86-4.92 3.73 3.73 0 0 1 4.93 1.88 3.73 3.73 0 0 1-1.88 4.92 3.71 3.71 0 0 1-1.52 0.32 3.69 3.69 0 0 1-3.43-2.22zm-7.13-14.44a3.75 3.75 0 0 1 1.52-5 3.71 3.71 0 0 1 5 1.52 3.73 3.73 0 0 1-1.5 5.05 3.77 3.77 0 0 1-1.76 0.45 3.76 3.76 0 0 1-3.3-2.04zm-8.13-13.9a3.73 3.73 0 0 1 1.16-5.14 3.72 3.72 0 0 1 5.13 1.15 3.72 3.72 0 0 1-1.15 5.14 3.61 3.61 0 0 1-2 0.58 3.74 3.74 0 0 1-3.18-1.75zm-9.1-13.27a3.73 3.73 0 0 1 0.77-5.21 3.73 3.73 0 0 1 5.22 0.77 3.71 3.71 0 0 1-0.77 5.21 3.66 3.66 0 0 1-2.21 0.73 3.72 3.72 0 0 1-3.05-1.52zm-10-12.6a3.72 3.72 0 0 1 0.4-5.25 3.69 3.69 0 0 1 5.24 0.41 3.7 3.7 0 0 1-0.4 5.24 3.69 3.69 0 0 1-2.41 0.89 3.68 3.68 0 0 1-2.91-1.32zm-10.92-11.86a3.71 3.71 0 0 1 0-5.26 3.71 3.71 0 0 1 5.26 0 3.72 3.72 0 0 1 0 5.26 3.78 3.78 0 0 1-2.62 1.09 3.7 3.7 0 0 1-2.72-1.11zm-11.74-11a3.72 3.72 0 0 1-0.34-5.26 3.7 3.7 0 0 1 5.24-0.34 3.73 3.73 0 0 1 0.36 5.26 3.78 3.78 0 0 1-2.8 1.26 3.64 3.64 0 0 1-2.54-0.98zm-12.55-10.24a3.71 3.71 0 0 1-0.72-5.21 3.73 3.73 0 0 1 5.22-0.73 3.7 3.7 0 0 1 0.71 5.21 3.71 3.71 0 0 1-3 1.49 3.7 3.7 0 0 1-2.21-0.76zm-13.2-9.26a3.73 3.73 0 0 1-1.09-5.14 3.73 3.73 0 0 1 5.16-1.1 3.74 3.74 0 0 1 1.09 5.15 3.73 3.73 0 0 1-3.13 1.7 3.65 3.65 0 0 1-2.06-0.61zm-13.8-8.28a3.72 3.72 0 0 1-1.46-5.07 3.74 3.74 0 0 1 5.06-1.46 3.73 3.73 0 0 1 1.46 5.07 3.74 3.74 0 0 1-3.26 1.92 3.79 3.79 0 0 1-1.8-0.46zm-14.4-7.28a3.72 3.72 0 0 1-1.81-4.94 3.72 3.72 0 0 1 4.93-1.82 3.7 3.7 0 0 1 1.83 4.93 3.72 3.72 0 0 1-3.38 2.18 3.85 3.85 0 0 1-1.62-0.35zm-14.88-6.21a3.73 3.73 0 0 1-2.17-4.79 3.72 3.72 0 0 1 4.79-2.19 3.73 3.73 0 0 1 2.18 4.81 3.72 3.72 0 0 1-3.49 2.41 4 4 0 0 1-1.36-0.24zm-15.27-5.12a3.73 3.73 0 0 1-2.52-4.62 3.73 3.73 0 0 1 4.64-2.52 3.73 3.73 0 0 1 2.52 4.62 3.74 3.74 0 0 1-3.58 2.67 4 4 0 0 1-1.11-0.15zm-15.61-4a3.73 3.73 0 0 1-2.84-4.44 3.72 3.72 0 0 1 4.42-2.85 3.75 3.75 0 0 1 2.85 4.44 3.73 3.73 0 0 1-3.64 2.93 4.43 4.43 0 0 1-0.84-0.07zm-15.85-2.86a3.75 3.75 0 0 1-3.16-4.22 3.73 3.73 0 0 1 4.22-3.16 3.71 3.71 0 0 1 3.15 4.22 3.71 3.71 0 0 1-3.68 3.18zm-16-1.72a3.73 3.73 0 0 1-3.45-4 3.73 3.73 0 0 1 4-3.45 3.72 3.72 0 0 1 3.45 4 3.71 3.71 0 0 1-3.71 3.45h-0.27zm-19.82-4.29a3.72 3.72 0 0 1 3.72-3.72 3.72 3.72 0 0 1 3.72 3.72 3.72 3.72 0 0 1-3.72 3.71 3.73 3.73 0 0 1-3.79-3.7z"/>
   <path class="cls-3" d="M586.82,696a3.71,3.71,0,0,1-.73-.08,4.83,4.83,0,0,1-.69-.2,4.94,4.94,0,0,1-.64-.35,5.09,5.09,0,0,1-.58-.46,3.84,3.84,0,0,1-1.08-2.64,3.8,3.8,0,0,1,1.08-2.63,4.26,4.26,0,0,1,.58-.47,3.92,3.92,0,0,1,.64-.34,4.91,4.91,0,0,1,.69-.21,3.73,3.73,0,0,1,3.37,6.29A3.79,3.79,0,0,1,586.82,696Z"/>
   <path class="cls-3" d="m570 695.49a3.74 3.74 0 0 1-3.51-3.94 3.72 3.72 0 0 1 3.91-3.55 3.73 3.73 0 0 1 3.52 3.93 3.74 3.74 0 0 1-3.73 3.52h-0.19zm-16.76-1.4a3.74 3.74 0 0 1-3.3-4.12 3.74 3.74 0 0 1 4.12-3.29 3.73 3.73 0 0 1 3.29 4.11 3.71 3.71 0 0 1-3.7 3.31h-0.41zm-16.67-2.34a3.74 3.74 0 0 1-3.06-4.29 3.73 3.73 0 0 1 4.29-3.06 3.74 3.74 0 0 1 3.06 4.29 3.73 3.73 0 0 1-3.67 3.12 3.18 3.18 0 0 1-0.63-0.06zm-16.51-3.27a3.7 3.7 0 0 1-2.8-4.45 3.7 3.7 0 0 1 4.45-2.8 3.7 3.7 0 0 1 2.8 4.45 3.7 3.7 0 0 1-3.62 2.89 3.91 3.91 0 0 1-0.84-0.09zm-16.3-4.18a3.72 3.72 0 0 1-2.55-4.62 3.74 3.74 0 0 1 4.61-2.55 3.73 3.73 0 0 1 2.54 4.62 3.73 3.73 0 0 1-3.57 2.7 4.07 4.07 0 0 1-1.04-0.15zm-16.07-5.13a3.7 3.7 0 0 1-2.28-4.73 3.72 3.72 0 0 1 4.74-2.3 3.76 3.76 0 0 1 2.29 4.75 3.72 3.72 0 0 1-3.52 2.49 3.54 3.54 0 0 1-1.24-0.21zm-15.75-6a3.72 3.72 0 0 1-2-4.87 3.71 3.71 0 0 1 4.87-2 3.71 3.71 0 0 1 2 4.85 3.7 3.7 0 0 1-3.44 2.31 3.77 3.77 0 0 1-1.44-0.3zm-15.37-6.89a3.72 3.72 0 0 1-1.75-5 3.72 3.72 0 0 1 5-1.73 3.72 3.72 0 0 1 1.73 5 3.7 3.7 0 0 1-3.35 2.11 3.57 3.57 0 0 1-1.64-0.39zm-15-7.74a3.73 3.73 0 0 1-1.44-5.07 3.72 3.72 0 0 1 5.07-1.47 3.74 3.74 0 0 1 1.45 5.07 3.75 3.75 0 0 1-3.26 1.92 3.83 3.83 0 0 1-1.81-0.46zm-14.49-8.59a3.71 3.71 0 0 1-1.16-5.14 3.72 3.72 0 0 1 5.14-1.16 3.75 3.75 0 0 1 1.16 5.14 3.76 3.76 0 0 1-3.16 1.75 3.71 3.71 0 0 1-1.97-0.6zm-14-9.37a3.73 3.73 0 0 1-0.88-5.2 3.74 3.74 0 0 1 5.2-0.87 3.73 3.73 0 0 1 0.86 5.2 3.67 3.67 0 0 1-3 1.56 3.67 3.67 0 0 1-2.16-0.7zm-13.45-10.14a3.73 3.73 0 0 1-0.58-5.23 3.72 3.72 0 0 1 5.23-0.58 3.73 3.73 0 0 1 0.59 5.23 3.73 3.73 0 0 1-2.92 1.4 3.72 3.72 0 0 1-2.3-0.83zm-12.84-10.86a3.72 3.72 0 0 1-0.3-5.26 3.73 3.73 0 0 1 5.26-0.3 3.72 3.72 0 0 1 0.29 5.26 3.72 3.72 0 0 1-2.78 1.24 3.74 3.74 0 0 1-2.45-0.95zm-12.21-11.58a3.71 3.71 0 0 1 0-5.26 3.72 3.72 0 0 1 5.27 0 3.74 3.74 0 0 1 0 5.26 3.73 3.73 0 0 1-2.64 1.11 3.72 3.72 0 0 1-2.63-1.11zm-11.58-12.24a3.71 3.71 0 0 1 0.3-5.24 3.71 3.71 0 0 1 5.26 0.28 3.72 3.72 0 0 1-0.3 5.26 3.67 3.67 0 0 1-2.48 1 3.66 3.66 0 0 1-2.78-1.3zm-10.86-12.84a3.73 3.73 0 0 1 0.59-5.23 3.72 3.72 0 0 1 5.24 0.58 3.72 3.72 0 0 1-0.6 5.23 3.67 3.67 0 0 1-2.31 0.82 3.72 3.72 0 0 1-2.91-1.4zm-10.14-13.44a3.7 3.7 0 0 1 0.88-5.18 3.71 3.71 0 0 1 5.18 0.86 3.72 3.72 0 0 1-0.88 5.2 3.71 3.71 0 0 1-2.14 0.69 3.66 3.66 0 0 1-3.04-1.57zm-9.36-14a3.72 3.72 0 0 1 1.17-5.14 3.74 3.74 0 0 1 5.14 1.16 3.75 3.75 0 0 1-1.18 5.14 3.67 3.67 0 0 1-2 0.58 3.71 3.71 0 0 1-3.09-1.71zm-8.52-14.48a3.72 3.72 0 0 1 1.46-5.07 3.73 3.73 0 0 1 5.06 1.46 3.72 3.72 0 0 1-1.46 5.07 3.74 3.74 0 0 1-1.8 0.46 3.7 3.7 0 0 1-3.26-1.92zm-7.72-14.9a3.72 3.72 0 0 1 1.73-5 3.71 3.71 0 0 1 5 1.74 3.73 3.73 0 0 1-1.74 5 3.69 3.69 0 0 1-1.61 0.35 3.71 3.71 0 0 1-3.38-2.09zm-6.88-15.33a3.73 3.73 0 0 1 2-4.87 3.73 3.73 0 0 1 4.87 2 3.71 3.71 0 0 1-2 4.87 3.59 3.59 0 0 1-1.43 0.29 3.73 3.73 0 0 1-3.44-2.29zm-6-15.7a3.72 3.72 0 0 1 2.3-4.74 3.73 3.73 0 0 1 4.74 2.28 3.74 3.74 0 0 1-2.28 4.75 3.77 3.77 0 0 1-1.22 0.21 3.78 3.78 0 0 1-3.55-2.5zm-5.11-16a3.73 3.73 0 0 1 2.55-4.6 3.72 3.72 0 0 1 4.62 2.54 3.73 3.73 0 0 1-2.55 4.61 3.74 3.74 0 0 1-1 0.15 3.74 3.74 0 0 1-3.63-2.77zm-4.18-16.3a3.7 3.7 0 0 1 2.8-4.45 3.71 3.71 0 0 1 4.45 2.8 3.7 3.7 0 0 1-2.8 4.45 3 3 0 0 1-0.83 0.11 3.72 3.72 0 0 1-3.63-2.94zm-3.28-16.5a3.73 3.73 0 0 1 3.05-4.27 3.72 3.72 0 0 1 4.3 3.05 3.73 3.73 0 0 1-3.06 4.29 4.44 4.44 0 0 1-0.62 0 3.73 3.73 0 0 1-3.68-3.1zm-2.34-16.67a3.73 3.73 0 0 1 3.29-4.12 3.75 3.75 0 0 1 4.12 3.3 3.75 3.75 0 0 1-3.3 4.11h-0.41a3.74 3.74 0 0 1-3.71-3.32zm-1.4-16.76a3.74 3.74 0 0 1 3.52-3.94 3.73 3.73 0 0 1 3.92 3.52 3.72 3.72 0 0 1-3.52 3.92h-0.21a3.71 3.71 0 0 1-3.72-3.53z"/>
   <path class="cls-3" d="M290.45,399.58a3.73,3.73,0,0,1-2.64-1.11,3.2,3.2,0,0,1-.46-.56,4.32,4.32,0,0,1-.34-.64,3.53,3.53,0,0,1-.21-2.15,3.73,3.73,0,0,1,.21-.7,4.89,4.89,0,0,1,.34-.64,3.2,3.2,0,0,1,.46-.56,3.86,3.86,0,0,1,5.28,0,3.73,3.73,0,0,1,0,5.25A3.73,3.73,0,0,1,290.45,399.58Z"/>
   <path class="cls-2" d="M586.82,103.21a3.7,3.7,0,0,1-2.62-1.11,3.67,3.67,0,0,1-1.1-2.63,3.51,3.51,0,0,1,.07-.72,3,3,0,0,1,.22-.7,2.86,2.86,0,0,1,.35-.64,2.5,2.5,0,0,1,.46-.56,3.17,3.17,0,0,1,.56-.47,3.92,3.92,0,0,1,.64-.34,4.26,4.26,0,0,1,.69-.22,3.77,3.77,0,0,1,3.37,1,2.81,2.81,0,0,1,.46.56,3.92,3.92,0,0,1,.34.64,4.33,4.33,0,0,1,.21.7,2.93,2.93,0,0,1,.07.72,3.68,3.68,0,0,1-1.08,2.63A3.75,3.75,0,0,1,586.82,103.21Z"/>
   <path class="cls-2" d="m879 379.3a3.73 3.73 0 0 1 3.52-3.92 3.73 3.73 0 0 1 3.93 3.52 3.74 3.74 0 0 1-3.51 3.92h-0.21a3.74 3.74 0 0 1-3.73-3.52zm-1.35-16.36a3.72 3.72 0 0 1 3.28-4.11 3.74 3.74 0 0 1 4.12 3.3 3.73 3.73 0 0 1-3.29 4.11h-0.42a3.73 3.73 0 0 1-3.69-3.3zm-2.28-16.23a3.73 3.73 0 0 1 3-4.31 3.74 3.74 0 0 1 4.3 3.05 3.73 3.73 0 0 1-3.05 4.3 3.35 3.35 0 0 1-0.63 0.05 3.71 3.71 0 0 1-3.62-3.09zm-3.2-16.11a3.73 3.73 0 0 1 2.81-4.45 3.73 3.73 0 0 1 4.46 2.8 3.74 3.74 0 0 1-2.8 4.47 4.07 4.07 0 0 1-0.84 0.09 3.74 3.74 0 0 1-3.63-2.91zm-4.09-15.88a3.72 3.72 0 0 1 2.55-4.62 3.73 3.73 0 0 1 4.6 2.55 3.73 3.73 0 0 1-2.54 4.62 4.14 4.14 0 0 1-1 0.15 3.76 3.76 0 0 1-3.61-2.7zm-5-15.64a3.74 3.74 0 0 1 2.28-4.75 3.73 3.73 0 0 1 4.75 2.29 3.71 3.71 0 0 1-2.27 4.74 3.69 3.69 0 0 1-1.24 0.22 3.75 3.75 0 0 1-3.51-2.5zm-5.84-15.3a3.72 3.72 0 0 1 2-4.87 3.74 3.74 0 0 1 4.88 2 3.74 3.74 0 0 1-2 4.87 3.69 3.69 0 0 1-1.41 0.28 3.73 3.73 0 0 1-3.46-2.28zm-6.7-15a3.72 3.72 0 0 1 1.73-5 3.71 3.71 0 0 1 5 1.73 3.73 3.73 0 0 1-1.74 5 3.71 3.71 0 0 1-1.61 0.37 3.71 3.71 0 0 1-3.37-2.06zm-7.54-14.51a3.74 3.74 0 0 1 1.45-5.07 3.72 3.72 0 0 1 5.06 1.46 3.74 3.74 0 0 1-1.44 5.07 3.8 3.8 0 0 1-1.81 0.46 3.7 3.7 0 0 1-3.26-1.92zm-8.34-14.11a3.72 3.72 0 0 1 1.16-5.14 3.74 3.74 0 0 1 5.14 1.16 3.73 3.73 0 0 1-1.16 5.14 3.75 3.75 0 0 1-2 0.58 3.73 3.73 0 0 1-3.13-1.74zm-9.13-13.63a3.73 3.73 0 0 1 0.88-5.2 3.74 3.74 0 0 1 5.2 0.88 3.73 3.73 0 0 1-0.88 5.2 3.73 3.73 0 0 1-2.15 0.68 3.75 3.75 0 0 1-3.04-1.56zm-9.87-13.11a3.72 3.72 0 0 1 0.59-5.23 3.71 3.71 0 0 1 5.22 0.58 3.71 3.71 0 0 1-0.58 5.24 3.72 3.72 0 0 1-2.32 0.81 3.71 3.71 0 0 1-2.9-1.4zm-10.59-12.53a3.73 3.73 0 0 1 0.3-5.26 3.72 3.72 0 0 1 5.26 0.3 3.74 3.74 0 0 1-0.3 5.26 3.77 3.77 0 0 1-2.49 0.94 3.72 3.72 0 0 1-2.76-1.24zm-11.26-11.89a3.71 3.71 0 0 1 0-5.26 3.72 3.72 0 0 1 5.27 0 3.72 3.72 0 0 1 0 5.26 3.64 3.64 0 0 1-2.62 1.1 3.71 3.71 0 0 1-2.65-1.1zm-11.92-11.28a3.72 3.72 0 0 1-0.3-5.26 3.73 3.73 0 0 1 5.26-0.3 3.73 3.73 0 0 1 0.3 5.26 3.7 3.7 0 0 1-2.79 1.25 3.65 3.65 0 0 1-2.47-0.99zm-12.55-10.61a3.71 3.71 0 0 1-0.58-5.23 3.72 3.72 0 0 1 5.23-0.58 3.7 3.7 0 0 1 0.58 5.23 3.66 3.66 0 0 1-2.9 1.4 3.72 3.72 0 0 1-2.33-0.86zm-13.11-9.87a3.73 3.73 0 0 1-0.88-5.2 3.72 3.72 0 0 1 5.2-0.88 3.73 3.73 0 0 1 0.88 5.2 3.75 3.75 0 0 1-3 1.56 3.78 3.78 0 0 1-2.2-0.72zm-13.64-9.15a3.71 3.71 0 0 1-1.16-5.14 3.73 3.73 0 0 1 5.14-1.16 3.75 3.75 0 0 1 1.16 5.14 3.77 3.77 0 0 1-3.16 1.74 3.7 3.7 0 0 1-1.98-0.62zm-14.14-8.36a3.74 3.74 0 0 1-1.46-5.06 3.72 3.72 0 0 1 5.07-1.45 3.72 3.72 0 0 1 1.46 5 3.72 3.72 0 0 1-3.27 1.92 3.77 3.77 0 0 1-1.8-0.45zm-14.58-7.55a3.73 3.73 0 0 1-1.75-5 3.74 3.74 0 0 1 5-1.74 3.74 3.74 0 0 1 1.73 5 3.71 3.71 0 0 1-3.36 2.11 3.7 3.7 0 0 1-1.62-0.41zm-15-6.72a3.71 3.71 0 0 1-2-4.85 3.72 3.72 0 0 1 4.87-2 3.71 3.71 0 0 1 2 4.85 3.7 3.7 0 0 1-3.44 2.31 3.83 3.83 0 0 1-1.44-0.35zm-15.36-5.87a3.72 3.72 0 0 1-2.27-4.75 3.7 3.7 0 0 1 4.73-2.28 3.72 3.72 0 0 1 2.3 4.74 3.74 3.74 0 0 1-3.52 2.5 4.14 4.14 0 0 1-1.25-0.25zm-15.65-5a3.74 3.74 0 0 1-2.57-4.6 3.75 3.75 0 0 1 4.62-2.57 3.74 3.74 0 0 1 2.55 4.62 3.75 3.75 0 0 1-3.58 2.7 3.6 3.6 0 0 1-1.03-0.18zm-15.86-4.11a3.74 3.74 0 0 1-2.81-4.47 3.73 3.73 0 0 1 4.47-2.8 3.72 3.72 0 0 1 2.8 4.45 3.74 3.74 0 0 1-3.64 2.91 3.81 3.81 0 0 1-0.82-0.09zm-16.1-3.19a3.73 3.73 0 0 1-3.06-4.29 3.74 3.74 0 0 1 4.29-3.06 3.73 3.73 0 0 1 3.06 4.3 3.71 3.71 0 0 1-3.67 3.09 4.3 4.3 0 0 1-0.67-0.04zm-16.31-2.29a3.7 3.7 0 0 1-3.27-4.11 3.71 3.71 0 0 1 4.11-3.29 3.72 3.72 0 0 1 3.28 4.11 3.73 3.73 0 0 1-3.71 3.29zm-16.34-1.36a3.72 3.72 0 0 1-3.51-3.91 3.7 3.7 0 0 1 3.91-3.52 3.71 3.71 0 0 1 3.52 3.92 3.73 3.73 0 0 1-3.71 3.51h-0.21z"/>
   <path class="cls-2" d="M883.19,399.58a3.66,3.66,0,0,1-2.62-1.11,2.5,2.5,0,0,1-.46-.56,3.06,3.06,0,0,1-.35-.64,3.69,3.69,0,0,1-.22-2.15,4.71,4.71,0,0,1,.22-.7,3.33,3.33,0,0,1,.35-.64,2.5,2.5,0,0,1,.46-.56,3.7,3.7,0,0,1,3.35-1,4,4,0,0,1,.7.21,3.55,3.55,0,0,1,.64.34,3.24,3.24,0,0,1,.57.47,3.68,3.68,0,0,1,0,5.25,3.81,3.81,0,0,1-.57.48,4.28,4.28,0,0,1-.64.33,4.07,4.07,0,0,1-.7.22A3.55,3.55,0,0,1,883.19,399.58Z"/>
   <circle class="cls-2" cx="847.53" cy="395.85" r="53.49"/>
   <path class="cls-2" d="m847.53 422.59a53.51 53.51 0 0 1-51.8-40.11 53.49 53.49 0 1 0 103.6 0 53.51 53.51 0 0 1-51.8 40.11z"/>
   <circle class="cls-2" cx="326.12" cy="395.85" r="53.49"/>
   <path class="cls-2" d="m326.12 422.59a53.5 53.5 0 0 1-51.8-40.11 53.49 53.49 0 1 0 103.6 0 53.51 53.51 0 0 1-51.8 40.11z"/>
   <path class="cls-2" d="m836.73 325.08a3.66 3.66 0 0 1-1.57-0.35l-16.87-7.87a3.72 3.72 0 1 1 3.15-6.75l13.49 6.29 6.3-13.49a3.72 3.72 0 0 1 6.75 3.15l-7.87 16.87a3.74 3.74 0 0 1-3.38 2.15z"/>
   <path class="cls-3" d="m329.05 490.94a3.73 3.73 0 0 1-3.38-5.3l7.87-16.87a3.72 3.72 0 0 1 4.95-1.8l16.87 7.86a3.72 3.72 0 0 1-3.15 6.75l-13.49-6.29-6.3 13.5a3.72 3.72 0 0 1-3.37 2.15z"/>
   <rect class="cls-6" transform="translate(375.09 -113.85) rotate(45)" x="290.25" y="361.12" width="69.45" height="69.45"/>
   <rect class="cls-3" transform="translate(720.82 70.14) rotate(90)" x="294.47" y="391.52" width="61.73" height="7.93" rx="3.96"/>
   <path class="cls-1" d="m346.78 376.75a30.88 30.88 0 0 0-43.61 0h16.38v3.86h11.58v-3.86z"/>
   <g>
    <path class="cls-1" d="m859.77 366.66a11.09 11.09 0 0 1-11.1 11.09 11.09 11.09 0 0 1-11.09-11.09h-9.74v58.39h9.74a11.1 11.1 0 0 1 22.19 0h9.73v-58.39z"/>
    <path class="cls-3" d="m836.22 395.86a12.46 12.46 0 1 1 12.45 12.45 12.46 12.46 0 0 1-12.45-12.45z"/>
   </g>
   <rect class="cls-6" x="811.09" y="358.27" width="75.17" height="75.17"/>
   <circle class="cls-2" cx="578.81" cy="400.72" r="172.69"/>
  </g>
 </g>
 <polygon transform="matrix(2.3836 0 0 2.3836 511.34 314.18)" points="35.56 33.62 33.57 36 35.56 38.38 61 68.56 63.34 66.6 37.56 36 63.34 5.4 61 3.44" fill="#c1272d"/>
 <polygon transform="matrix(2.3836 0 0 2.3836 511.34 314.18)" points="58.99 70.04 30.3 36 58.99 1.96 56.65 0 28.31 33.62 2.34 2.67 0 4.64 26.32 36 0 67.36 2.34 69.33 28.31 38.38 56.65 72" fill="#fff"/>
</svg>
