<svg version="1.1" viewBox="0 0 1160 800" xmlns="http://www.w3.org/2000/svg">
 <defs>
  <style>.cls-1{fill:#fff;}.cls-2{fill:#2dd8a3;}.cls-3{fill:#c4cbd2;}.cls-4{fill:#091440;}.cls-5{fill:none;}.cls-6{fill:#ffc84e;}.cls-7{fill:#ffe4a7;}</style>
 </defs>
 <g>
  <g id="_">
   <rect class="cls-1" width="1160" height="800"/>
   <g id="repetitive">
    <path class="cls-2" d="M798.7,45.41h306.75A9.55,9.55,0,0,1,1115,55v690a9.55,9.55,0,0,1-9.55,9.55H794.55a9.55,9.55,0,0,1-9.55-9.55V59.12A13.7,13.7,0,0,1,798.7,45.41Z"/>
    <rect id="BG" class="cls-3" x="45.6" y="45.41" width="726.06" height="709.17" rx="14.06"/>
   </g>
   <g id="Coin">
    <polygon class="cls-4" points="234.24 563.61 281.14 493.54 607.8 493.54 560.9 563.44"/>
    <rect class="cls-5" x="211.14" y="190.21" width="420" height="420"/>
   </g>
   <g id="Lock_open">
    <rect class="cls-1" x="870" y="389.12" width="160" height="104.59"/>
    <path class="cls-4" d="M870,415.47h160V524.12H870Z"/>
    <path class="cls-4" d="m920.47 304.25-18.62 18.62 18.32 18.33 18.63-18.63a39.34 39.34 0 0 1 55.59-0.07l0.07 0.07a39.34 39.34 0 0 1 0.08 55.59l-18.67 18.67 18.33 18.32 18.63-18.62a65.36 65.36 0 0 0 0-92.32 65.39 65.39 0 0 0-92.36 0.04z"/>
    <line class="cls-5" x1="904.87" x2="904.87" y1="470.79" y2="470.79"/>
    <polygon class="cls-1" points="987.73 437.8 940.57 484.96 912.27 456.66 902.86 466.07 940.57 503.78 997.14 447.21"/>
    <rect class="cls-5" x="830" y="297.46" width="240" height="240"/>
   </g>
   <path class="cls-1" d="m374.58 292.54a26.73 26.73 0 1 1 26.72-26.73 26.75 26.75 0 0 1-26.72 26.73z"/>
   <path class="cls-6" d="m374.58 241.71a24.11 24.11 0 1 1-24.11 24.1 24.13 24.13 0 0 1 24.11-24.1m0-5.24a29.35 29.35 0 1 0 29.34 29.34 29.35 29.35 0 0 0-29.34-29.34z"/>
   <path class="cls-1" d="m315.55 248.78a26.72 26.72 0 1 1 26.72-26.72 26.75 26.75 0 0 1-26.72 26.72z"/>
   <path class="cls-6" d="m315.55 198a24.1 24.1 0 1 1-24.1 24.1 24.13 24.13 0 0 1 24.1-24.1m0-5.24a29.34 29.34 0 1 0 29.34 29.34 29.35 29.35 0 0 0-29.34-29.34z"/>
   <path class="cls-6" d="M436.22,316.57V635.42H410.6C343.38,635.42,288.89,564,288.89,476S343.38,316.57,410.6,316.57Z"/>
   <path class="cls-7" d="M297.57,531.51c1.1,3.87,2.33,7.66,3.64,11.38H437.3V531.51Z"/>
   <path class="cls-7" d="M309.63,562.82q2.92,5.88,6.22,11.39H437.3V562.82Z"/>
   <path class="cls-7" d="M291.37,500.19c.45,3.85,1,7.63,1.69,11.39H437.3V500.19Z"/>
   <path class="cls-7" d="m330 594.14a135.82 135.82 0 0 0 10.8 11.38h96.5v-11.38z"/>
   <path class="cls-7" d="m437.3 629.72v-11.39h-80.41a105 105 0 0 0 22.56 11.39z"/>
   <path class="cls-7" d="M293.56,437.56c-.71,3.74-1.3,7.54-1.8,11.39H437.3V437.56Z"/>
   <path class="cls-7" d="M290.12,468.87c-.08,2.37-.14,4.74-.14,7.12,0,1.43,0,2.85.08,4.27H437.3V468.87Z"/>
   <path class="cls-7" d="m388.83 319.41a101.74 101.74 0 0 0-27.4 11.39h75.87v-11.39z"/>
   <path class="cls-7" d="M343.85,343.61A132.86,132.86,0,0,0,332.48,355H437.3V343.61Z"/>
   <path class="cls-7" d="M317.56,374.93q-3.44,5.49-6.5,11.39H437.3V374.93Z"/>
   <path class="cls-7" d="M302.23,406.24c-1.39,3.72-2.64,7.53-3.8,11.39H437.3V406.24Z"/>
   <ellipse class="cls-6" cx="436.93" cy="475.99" rx="121.7" ry="159.42"/>
   <ellipse class="cls-1" cx="436.93" cy="475.99" rx="94.66" ry="132.38"/>
   <rect class="cls-4" x="264.37" y="550.51" width="296.39" height="13.06"/>
   <rect class="cls-3" x="303.29" y="563.57" width="238.1" height="99.81"/>
   <path class="cls-6" d="m315.26 265.29v58.53h-4.7c-12.34 0-22.34-13.1-22.34-29.27s10-29.26 22.34-29.26z"/>
   <path class="cls-7" d="M289.81,304.75c.2.71.43,1.4.67,2.09h25v-2.09Z"/>
   <path class="cls-7" d="M292,310.5c.36.71.74,1.41,1.15,2.09h22.29V310.5Z"/>
   <path class="cls-7" d="M288.67,299c.08.7.19,1.4.31,2.09h26.48V299Z"/>
   <path class="cls-7" d="m295.76 316.24a24.61 24.61 0 0 0 2 2.09h17.72v-2.09z"/>
   <path class="cls-7" d="M315.46,322.78v-2.09H300.7a19.87,19.87,0,0,0,4.14,2.09Z"/>
   <path class="cls-7" d="M289.07,287.5c-.13.69-.24,1.38-.33,2.09h26.72V287.5Z"/>
   <path class="cls-7" d="m288.44 293.25v1.3 0.79h27v-2.09z"/>
   <path class="cls-7" d="m306.56 265.81a19 19 0 0 0-5 2.09h13.93v-2.09z"/>
   <path class="cls-7" d="m298.31 270.25a24.25 24.25 0 0 0-2.09 2.09h19.24v-2.09z"/>
   <path class="cls-7" d="M293.48,276c-.42.67-.82,1.37-1.19,2.09h23.17V276Z"/>
   <path class="cls-7" d="M290.66,281.75c-.25.68-.48,1.38-.69,2.09h25.49v-2.09Z"/>
   <ellipse class="cls-6" cx="315.39" cy="294.55" rx="22.34" ry="29.27"/>
   <ellipse class="cls-1" cx="315.39" cy="294.55" rx="17.38" ry="24.3"/>
  </g>
 </g>
 <polygon transform="matrix(.3053 0 0 .3053 306.01 283.56)" points="35.56 38.38 61 68.56 63.34 66.6 37.56 36 63.34 5.4 61 3.44 35.56 33.62 33.57 36" fill="#c1272d"/>
 <polygon transform="matrix(.3053 0 0 .3053 306.01 283.56)" points="58.99 1.96 56.65 0 28.31 33.62 2.34 2.67 0 4.64 26.32 36 0 67.36 2.34 69.33 28.31 38.38 56.65 72 58.99 70.04 30.3 36" fill="#1a1a1a"/>
 <polygon transform="matrix(.31201 0 0 .31201 364.42 254.59)" points="35.56 38.38 61 68.56 63.34 66.6 37.56 36 63.34 5.4 61 3.44 35.56 33.62 33.57 36" fill="#c1272d"/>
 <polygon transform="matrix(.31201 0 0 .31201 364.42 254.59)" points="58.99 1.96 56.65 0 28.31 33.62 2.34 2.67 0 4.64 26.32 36 0 67.36 2.34 69.33 28.31 38.38 56.65 72 58.99 70.04 30.3 36" fill="#1a1a1a"/>
 <polygon transform="matrix(.35425 0 0 .35425 305.1 209.2)" points="33.57 36 35.56 38.38 61 68.56 63.34 66.6 37.56 36 63.34 5.4 61 3.44 35.56 33.62" fill="#c1272d"/>
 <polygon transform="matrix(.35425 0 0 .35425 305.1 209.2)" points="30.3 36 58.99 1.96 56.65 0 28.31 33.62 2.34 2.67 0 4.64 26.32 36 0 67.36 2.34 69.33 28.31 38.38 56.65 72 58.99 70.04" fill="#1a1a1a"/>
 <polygon transform="matrix(1.5862 0 0 1.5862 389.82 406.25)" points="61 3.44 35.56 33.62 33.57 36 35.56 38.38 61 68.56 63.34 66.6 37.56 36 63.34 5.4" fill="#c1272d"/>
 <polygon transform="matrix(1.5862 0 0 1.5862 389.82 406.25)" points="26.32 36 0 67.36 2.34 69.33 28.31 38.38 56.65 72 58.99 70.04 30.3 36 58.99 1.96 56.65 0 28.31 33.62 2.34 2.67 0 4.64" fill="#1a1a1a"/>
</svg>
