<svg version="1.1" viewBox="0 0 1160 800" xmlns="http://www.w3.org/2000/svg">
 <defs>
  <style>.cls-1{fill:#fff;}.cls-2{fill:#2dd8a3;}.cls-3{fill:#ffc84e;}.cls-4{fill:#c4cbd2;}.cls-5{fill:#091440;}.cls-6{fill:none;}.cls-7{fill:#ffe4a7;}</style>
 </defs>
 <g>
  <g id="s4_-_f3_-_verify">
   <rect class="cls-1" width="1160" height="800"/>
   <g id="repetitive">
    <path class="cls-2" transform="translate(1900 1166.2) rotate(180)" d="M794.55,410.56h310.9a9.55,9.55,0,0,1,9.55,9.55v321.8a13.7,13.7,0,0,1-13.7,13.7H794.55a9.55,9.55,0,0,1-9.55-9.55v-326a9.55,9.55,0,0,1,9.55-9.55Z"/>
    <path class="cls-3" d="M798.7,45.41h306.75A9.55,9.55,0,0,1,1115,55v326a9.55,9.55,0,0,1-9.55,9.55H794.55a9.55,9.55,0,0,1-9.55-9.55V59.12A13.7,13.7,0,0,1,798.7,45.41Z"/>
    <rect id="BG" class="cls-4" x="45.6" y="45.41" width="726.06" height="709.17" rx="14.06"/>
   </g>
   <g id="lock">
    <rect class="cls-1" x="870" y="546.04" width="160" height="104.59"/>
    <path class="cls-5" d="M870,572.39h160V681H870Z"/>
    <path class="cls-5" d="M885.14,533v26.34h25.92V533a39.33,39.33,0,0,1,39.25-39.36h.11a39.35,39.35,0,0,1,39.36,39.26v26.39h25.92V533a65.37,65.37,0,0,0-65.28-65.28h0A65.39,65.39,0,0,0,885.14,533Z"/>
    <line class="cls-6" x1="904.87" x2="904.87" y1="627.71" y2="627.71"/>
    <rect class="cls-6" x="830" y="454.38" width="240" height="240"/>
   </g>
   <g id="timer">
    <path class="cls-1" d="M950.42,631.27V608.5a22.77,22.77,0,1,0,22.76,22.77Z"/>
    <path class="cls-6" d="m909.44 585.74h78.37a3.59 3.59 0 0 1 3.59 3.59v78.37h-82v-82a0 0 0 0 1 0.04 0.04z"/>
    <path class="cls-1" d="m952.69 599.48v-4.64h6.83v-4.55h-18.21v4.55h6.83v4.64a31.88 31.88 0 1 0 4.55 0zm-2.27 59.11a27.32 27.32 0 1 1 27.32-27.32 27.35 27.35 0 0 1-27.32 27.32z"/>
   </g>
   <g id="Ticket">
    <g>
     <path class="cls-1" d="M987,120.57a37,37,0,0,1-37,37h0a37,37,0,0,1-37-37H880.53V315.3H913a37,37,0,0,1,74,0h32.47V120.57Z"/>
     <path class="cls-5" d="M908.47,217.94A41.53,41.53,0,1,1,950,259.47a41.53,41.53,0,0,1-41.53-41.53Z"/>
    </g>
    <rect class="cls-6" x="824.66" y="92.6" width="250.69" height="250.69"/>
   </g>
   <path class="cls-3" d="M426.52,190V618.38H392.09c-90.3,0-163.51-95.9-163.51-214.19S301.79,190,392.09,190Z"/>
   <path class="cls-7" d="M240.24,478.77c1.48,5.21,3.13,10.3,4.9,15.3H428v-15.3Z"/>
   <path class="cls-7" d="M256.45,520.85q3.92,7.89,8.35,15.3H428v-15.3Z"/>
   <path class="cls-7" d="M231.91,436.7c.6,5.17,1.39,10.26,2.27,15.3H428V436.7Z"/>
   <path class="cls-7" d="M283.77,562.92a182,182,0,0,0,14.52,15.3H428v-15.3Z"/>
   <path class="cls-7" d="m428 610.73v-15.3h-108a141.42 141.42 0 0 0 30.31 15.3z"/>
   <path class="cls-7" d="M234.85,352.56c-.95,5-1.75,10.13-2.42,15.29H428V352.56Z"/>
   <path class="cls-7" d="M230.22,394.63c-.1,3.17-.18,6.35-.18,9.56,0,1.92.07,3.82.11,5.74H428v-15.3Z"/>
   <path class="cls-7" d="m362.86 193.82a136.47 136.47 0 0 0-36.86 15.3h102v-15.3z"/>
   <path class="cls-7" d="M302.42,226.34a176.52,176.52,0,0,0-15.28,15.3H428v-15.3Z"/>
   <path class="cls-7" d="M267.1,268.41q-4.62,7.38-8.74,15.3H428v-15.3Z"/>
   <path class="cls-7" d="M246.5,310.48c-1.86,5-3.54,10.11-5.1,15.3H428v-15.3Z"/>
   <ellipse class="cls-3" cx="427.47" cy="404.19" rx="163.51" ry="214.19"/>
   <ellipse class="cls-1" cx="427.47" cy="404.19" rx="127.18" ry="177.85"/>
  </g>
 </g>
 <polygon transform="matrix(2.3819 0 0 2.3819 355.83 316.53)" points="61 3.44 35.56 33.62 33.57 36 35.56 38.38 61 68.56 63.34 66.6 37.56 36 63.34 5.4" fill="#c1272d"/>
 <polygon transform="matrix(2.3819 0 0 2.3819 355.83 316.53)" points="56.65 72 58.99 70.04 30.3 36 58.99 1.96 56.65 0 28.31 33.62 2.34 2.67 0 4.64 26.32 36 0 67.36 2.34 69.33 28.31 38.38" fill="#1a1a1a"/>
</svg>
