<svg width="1160" height="800" viewBox="0 0 1160 800" xmlns="http://www.w3.org/2000/svg">
 <path d="M1160 0H0V800H1160V0Z" fill="#fff"/>
 <path d="m1099 110.22h-496c-7.7 0-14 6.3-14 14v681.3c0 7.7 6.3 14 14 14h496c7.7 0 14-6.3 14-14v-681.3c0-7.8-6.3-14-14-14z" fill="#091440"/>
 <path d="m555 46.201h-495.3c-7.7 0-14 6.3-14 14v681.5c0 7.7 6.3 14 14 14h495.3c7.7 0 14-6.3 14-14v-681.5c0-7.7-6.3-14-14-14z" fill="#091440"/>
 <g fill="#394269">
  <path d="m137.4 660.9h-20v20h20v-20z"/>
  <path d="m197.4 660.9h-20v20h20v-20z"/>
  <path d="m257.4 660.9h-20v20h20v-20z"/>
 </g>
 <path d="m300.33 677.98h14v-14h-14v14z" fill="#fff"/>
 <g fill="#394269">
  <path d="m377.4 660.9h-20v20h20v-20z"/>
  <path d="m437.4 660.9h-20v20h20v-20z"/>
  <path d="m497.4 660.9h-20v20h20v-20z"/>
  <path d="m137.4 540.9h-20v20h20v-20z"/>
  <path d="m197.4 540.9h-20v20h20v-20z"/>
  <path d="m257.4 540.9h-20v20h20v-20z"/>
 </g>
 <path d="m300.33 557.98h14v-14h-14v14z" fill="#fff"/>
 <g fill="#394269">
  <path d="m377.4 540.9h-20v20h20v-20z"/>
  <path d="m437.4 540.9h-20v20h20v-20z"/>
  <path d="m497.4 540.9h-20v20h20v-20z"/>
  <path d="m137.4 600.9h-20v20h20v-20z"/>
  <path d="m197.4 600.9h-20v20h20v-20z"/>
  <path d="m257.4 600.9h-20v20h20v-20z"/>
 </g>
 <path d="m300.33 617.98h14v-14h-14v14z" fill="#fff"/>
 <g fill="#394269">
  <path d="m377.4 600.9h-20v20h20v-20z"/>
  <path d="m437.4 600.9h-20v20h20v-20z"/>
  <path d="m497.4 600.9h-20v20h20v-20z"/>
  <path d="m137.4 420.9h-20v20h20v-20z"/>
  <path d="m197.4 420.9h-20v20h20v-20z"/>
  <path d="m257.4 420.9h-20v20h20v-20z"/>
 </g>
 <path d="m300.33 437.98h14v-14h-14v14z" fill="#fff"/>
 <g fill="#394269">
  <path d="m377.4 420.9h-20v20h20v-20z"/>
  <path d="m437.4 420.9h-20v20h20v-20z"/>
  <path d="m497.4 420.9h-20v20h20v-20z"/>
  <path d="m137.4 480.9h-20v20h20v-20z"/>
  <path d="m197.4 480.9h-20v20h20v-20z"/>
  <path d="m257.4 480.9h-20v20h20v-20z"/>
 </g>
 <path d="m300.33 497.98h14v-14h-14v14z" fill="#fff"/>
 <g fill="#394269">
  <path d="m377.4 480.9h-20v20h20v-20z"/>
  <path d="m437.4 480.9h-20v20h20v-20z"/>
  <path d="m497.4 480.9h-20v20h20v-20z"/>
  <path d="m137.4 300.9h-20v20h20v-20z"/>
 </g>
 <path d="m180.33 317.98h14v-14h-14v14z" fill="#fff"/>
 <path d="m257.4 300.9h-20v20h20v-20z" fill="#394269"/>
 <path d="m300.33 317.98h14v-14h-14v14z" fill="#fff"/>
 <path d="m377.4 300.9h-20v20h20v-20z" fill="#394269"/>
 <path d="m420.33 317.98h14v-14h-14v14z" fill="#fff"/>
 <path d="m497.4 300.9h-20v20h20v-20z" fill="#394269"/>
 <path d="m137.4 360.9h-20v20h20v-20z" fill="#394269"/>
 <g fill="#fff">
  <path d="m180.33 377.98h14v-14h-14v14z"/>
  <path d="m240.33 377.98h14v-14h-14v14z"/>
  <path d="m300.33 377.98h14v-14h-14v14z"/>
  <path d="m360.33 377.98h14v-14h-14v14z"/>
  <path d="m420.33 377.98h14v-14h-14v14z"/>
 </g>
 <g fill="#394269">
  <path d="m497.4 360.9h-20v20h20v-20z"/>
  <path d="m137.4 180.9h-20v20h20v-20z"/>
  <path d="m197.4 180.9h-20v20h20v-20z"/>
  <path d="m257.4 180.9h-20v20h20v-20z"/>
  <path d="m317.4 180.9h-20v20h20v-20z"/>
  <path d="m377.4 180.9h-20v20h20v-20z"/>
  <path d="m437.4 180.9h-20v20h20v-20z"/>
  <path d="m497.4 180.9h-20v20h20v-20z"/>
  <path d="m137.4 240.9h-20v20h20v-20z"/>
  <path d="m257.4 240.9h-20v20h20v-20z"/>
  <path d="m377.4 240.9h-20v20h20v-20z"/>
  <path d="m497.4 240.9h-20v20h20v-20z"/>
  <path d="m137.4 120.9h-20v20h20v-20z"/>
  <path d="m197.4 120.9h-20v20h20v-20z"/>
  <path d="m257.4 120.9h-20v20h20v-20z"/>
  <path d="m317.4 120.9h-20v20h20v-20z"/>
  <path d="m377.4 120.9h-20v20h20v-20z"/>
  <path d="m437.4 120.9h-20v20h20v-20z"/>
  <path d="m497.4 120.9h-20v20h20v-20z"/>
 </g>
 <g fill="#2970FF">
  <path d="m674 660.5c-5.5 0-10 4.5-10 10s4.5 10 10 10 10-4.5 10-10-4.5-10-10-10z"/>
  <path d="m734 660.5c-5.5 0-10 4.5-10 10s4.5 10 10 10 10-4.5 10-10-4.5-10-10-10z"/>
  <path d="m794 660.5c-5.5 0-10 4.5-10 10s4.5 10 10 10 10-4.5 10-10-4.5-10-10-10z"/>
 </g>
 <path d="m854.04 680.46 9.899-9.899-9.899-9.9-9.9 9.9 9.9 9.899z" fill="#fff"/>
 <g fill="#2DD8A3">
  <path d="m924 660.5h-20v20h20v-20z"/>
  <path d="m984 660.5h-20v20h20v-20z"/>
  <path d="m1044 660.5h-20v20h20v-20z"/>
 </g>
 <g fill="#2970FF">
  <path d="m674 540.5c-5.5 0-10 4.5-10 10s4.5 10 10 10 10-4.5 10-10-4.5-10-10-10z"/>
  <path d="m734 540.5c-5.5 0-10 4.5-10 10s4.5 10 10 10 10-4.5 10-10-4.5-10-10-10z"/>
  <path d="m794 540.5c-5.5 0-10 4.5-10 10s4.5 10 10 10 10-4.5 10-10-4.5-10-10-10z"/>
 </g>
 <path d="m854.03 560.46 9.899-9.899-9.899-9.9-9.9 9.9 9.9 9.899z" fill="#fff"/>
 <g fill="#2DD8A3">
  <path d="m924 540.5h-20v20h20v-20z"/>
  <path d="m984 540.5h-20v20h20v-20z"/>
  <path d="m1044 540.5h-20v20h20v-20z"/>
 </g>
 <g fill="#2970FF">
  <path d="m674 600.5c-5.5 0-10 4.5-10 10s4.5 10 10 10 10-4.5 10-10-4.5-10-10-10z"/>
  <path d="m734 600.5c-5.5 0-10 4.5-10 10s4.5 10 10 10 10-4.5 10-10-4.5-10-10-10z"/>
  <path d="m794 600.5c-5.5 0-10 4.5-10 10s4.5 10 10 10 10-4.5 10-10-4.5-10-10-10z"/>
 </g>
 <path d="m854.03 620.46 9.9-9.899-9.9-9.9-9.899 9.9 9.899 9.899z" fill="#fff"/>
 <g fill="#2DD8A3">
  <path d="m924 600.5h-20v20h20v-20z"/>
  <path d="m984 600.5h-20v20h20v-20z"/>
  <path d="m1044 600.5h-20v20h20v-20z"/>
 </g>
 <g fill="#2970FF">
  <path d="m674 420.5c-5.5 0-10 4.5-10 10s4.5 10 10 10 10-4.5 10-10-4.5-10-10-10z"/>
  <path d="m734 420.5c-5.5 0-10 4.5-10 10s4.5 10 10 10 10-4.5 10-10-4.5-10-10-10z"/>
  <path d="m794 420.5c-5.5 0-10 4.5-10 10s4.5 10 10 10 10-4.5 10-10-4.5-10-10-10z"/>
  <path d="m854 420.5c-5.5 0-10 4.5-10 10s4.5 10 10 10 10-4.5 10-10-4.5-10-10-10z"/>
 </g>
 <path d="m914.03 440.45 9.9-9.899-9.9-9.9-9.899 9.9 9.899 9.899z" fill="#fff"/>
 <path d="m984 420.5h-20v20h20v-20z" fill="#2DD8A3"/>
 <path d="m1044 420.5h-20v20h20v-20z" fill="#2DD8A3"/>
 <g fill="#2970FF">
  <path d="m674 480.5c-5.5 0-10 4.5-10 10s4.5 10 10 10 10-4.5 10-10-4.5-10-10-10z"/>
  <path d="m734 480.5c-5.5 0-10 4.5-10 10s4.5 10 10 10 10-4.5 10-10-4.5-10-10-10z"/>
  <path d="m794 480.5c-5.5 0-10 4.5-10 10s4.5 10 10 10 10-4.5 10-10-4.5-10-10-10z"/>
  <path d="m854 480.5c-5.5 0-10 4.5-10 10s4.5 10 10 10 10-4.5 10-10-4.5-10-10-10z"/>
 </g>
 <path d="m914.03 500.45 9.899-9.899-9.899-9.9-9.9 9.9 9.9 9.899z" fill="#fff"/>
 <path d="m984 480.5h-20v20h20v-20z" fill="#2DD8A3"/>
 <path d="m1044 480.5h-20v20h20v-20z" fill="#2DD8A3"/>
 <path d="m674 300.5c-5.5 0-10 4.5-10 10s4.5 10 10 10 10-4.5 10-10-4.5-10-10-10z" fill="#2970FF"/>
 <path d="m734 300.5c-5.5 0-10 4.5-10 10s4.5 10 10 10 10-4.5 10-10-4.5-10-10-10z" fill="#2970FF"/>
 <path d="m794.03 320.45 9.899-9.899-9.899-9.9-9.9 9.9 9.9 9.899z" fill="#fff"/>
 <path d="m854.03 320.45 9.9-9.899-9.9-9.9-9.899 9.9 9.899 9.899z" fill="#fff"/>
 <g fill="#2DD8A3">
  <path d="m924 300.5h-20v20h20v-20z"/>
  <path d="m984 300.5h-20v20h20v-20z"/>
  <path d="m1044 300.5h-20v20h20v-20z"/>
 </g>
 <g fill="#2970FF">
  <path d="m674 360.5c-5.5 0-10 4.5-10 10s4.5 10 10 10 10-4.5 10-10-4.5-10-10-10z"/>
  <path d="m734 360.5c-5.5 0-10 4.5-10 10s4.5 10 10 10 10-4.5 10-10-4.5-10-10-10z"/>
  <path d="m794 360.5c-5.5 0-10 4.5-10 10s4.5 10 10 10 10-4.5 10-10-4.5-10-10-10z"/>
  <path d="m854 360.5c-5.5 0-10 4.5-10 10s4.5 10 10 10 10-4.5 10-10-4.5-10-10-10z"/>
 </g>
 <path d="m914.03 380.45 9.9-9.899-9.9-9.9-9.899 9.9 9.899 9.899z" fill="#fff"/>
 <path d="m984 360.5h-20v20h20v-20z" fill="#2DD8A3"/>
 <path d="m1044 360.5h-20v20h20v-20z" fill="#2DD8A3"/>
 <g fill="#394269">
  <path d="m684 180.5h-20v20h20v-20z"/>
  <path d="m744 180.5h-20v20h20v-20z"/>
  <path d="m804 180.5h-20v20h20v-20z"/>
  <path d="m864 180.5h-20v20h20v-20z"/>
  <path d="m924 180.5h-20v20h20v-20z"/>
  <path d="m984 180.5h-20v20h20v-20z"/>
  <path d="m1044 180.5h-20v20h20v-20z"/>
 </g>
 <path d="m674 240.5c-5.5 0-10 4.5-10 10s4.5 10 10 10 10-4.5 10-10-4.5-10-10-10z" fill="#2970FF"/>
 <path d="m734 240.5c-5.5 0-10 4.5-10 10s4.5 10 10 10 10-4.5 10-10-4.5-10-10-10z" fill="#2970FF"/>
 <path d="m801.03 257.54v-14h-14v14h14z" fill="#fff"/>
 <g fill="#2DD8A3">
  <path d="m864 240.5h-20v20h20v-20z"/>
  <path d="m924 240.5h-20v20h20v-20z"/>
  <path d="m984 240.5h-20v20h20v-20z"/>
  <path d="m1044 240.5h-20v20h20v-20z"/>
 </g>
 <g fill="#394269">
  <path d="m684 120.5h-20v20h20v-20z"/>
  <path d="m744 120.5h-20v20h20v-20z"/>
  <path d="m804 120.5h-20v20h20v-20z"/>
  <path d="m864 120.5h-20v20h20v-20z"/>
  <path d="m924 120.5h-20v20h20v-20z"/>
  <path d="m984 120.5h-20v20h20v-20z"/>
  <path d="m1044 120.5h-20v20h20v-20z"/>
 </g>
 <g fill="#fff">
  <path d="m856 670.5h-4v-120.8l60-60v-118.3l-58.8-58.9h-61.2v-122h4v118h58.8l61.2 61.2v121.7l-60 60v119.1z"/>
  <path d="m309.4 670.9h-4v-298h-120v-122.1h4v118.1h120v302z"/>
  <path d="m429.4 372.9h-124v-122.1h4v118.1h116l-0.1-118.1h4l0.1 122.1z"/>
 </g>
 <g fill="#394269">
  <path d="m189.4 130.8h-4v3h4v-3z"/>
  <path d="m189.4 181.8h-4v-6h4v6zm0-12h-4v-6h4v6zm0-12h-4v-6h4v6zm0-12h-4v-6h4v6z"/>
  <path d="m189.4 187.8h-4v3h4v-3z"/>
  <path d="m309.4 130.8h-4v3h4v-3z"/>
  <path d="m309.4 181.8h-4v-6h4v6zm0-12h-4v-6h4v6zm0-12h-4v-6h4v6zm0-12h-4v-6h4v6z"/>
  <path d="m309.4 187.8h-4v3h4v-3z"/>
  <path d="m429.4 130.8h-4v3h4v-3z"/>
  <path d="m429.4 181.8h-4v-6h4v6zm0-12h-4v-6h4v6zm0-12h-4v-6h4v6zm0-12h-4v-6h4v6z"/>
  <path d="m429.4 187.8h-4v3h4v-3z"/>
 </g>
 <path d="m213.4 249.7c-15.2 15.2-39.7 15.2-54.9 0s-15.2-39.7 0-54.9l54.9 54.9z" fill="#FFC84E"/>
 <path d="m218.1 195c-13.8-16.4-38.2-18.6-54.7-4.8l49.9 59.4c16.4-13.7 18.6-38.2 4.8-54.6z" fill="#FFC84E"/>
 <path d="m161.7 201.6 7.6 7.6c-2.5 3.5-3.9 7.7-3.9 12.2 0 5.8 2.4 11.1 6.2 14.9s9.1 6.2 14.9 6.2c4.5 0 8.8-1.4 12.2-3.9l7.8 7.8 5-5-7.8-7.8c2.5-3.5 3.9-7.8 3.9-12.2h-7c0 3.7-1.5 7.3-4.1 9.9-2.7 2.7-6.2 4.1-9.9 4.1-7.7 0-14-6.3-14-14 0-3.9 1.6-7.4 4.1-9.9s6-4.1 9.9-4.1v-7c-4.3 0-8.2 1.2-11.5 3.5-0.2 0.1-0.4 0.3-0.7 0.5l-7.7-7.7-5 4.9z" fill="#fff"/>
 <path d="m318 258.1c-19.9 7.9-42.5-1.9-50.3-21.8s1.9-42.5 21.8-50.3l28.5 72.1z" fill="#FFC84E"/>
 <path d="m347.8 211.2c-5-20.8-26-33.6-46.8-28.6l18.3 75.4c20.7-5 33.5-26 28.5-46.8z" fill="#FFC84E"/>
 <path d="m284.4 198.8 6.7 8.5c-2.9 3.2-4.8 7.1-5.4 11.7-0.7 5.8 1 11.3 4.3 15.6s8.3 7.3 14 8c4.4 0.5 8.9-0.4 12.6-2.4l6.8 8.6 5.6-4.3-6.8-8.7c2.9-3.2 4.8-7.2 5.4-11.6h-0.2l-6.8-0.8c-0.5 3.7-2.3 7-5.3 9.3s-6.6 3.3-10.4 2.9c-7.7-0.9-13.2-8-12.2-15.6 0.5-3.8 2.5-7.1 5.3-9.3s6.5-3.3 10.3-2.9l0.8-6.8v-0.2c-4.2-0.5-8.3 0.2-11.9 2-0.2 0.1-0.5 0.2-0.7 0.4l-6.7-8.5-5.4 4.1z" fill="#fff"/>
 <path d="m438.1 258.5c-20.4 6.5-42.2-4.7-48.8-25.1s4.7-42.2 25.1-48.8l23.7 73.9z" fill="#FFC84E"/>
 <path d="m468.1 207.2c-7.3-20.1-29.6-30.5-49.7-23.2l26.5 72.9c20.1-7.3 30.5-29.5 23.2-49.7z" fill="#FFC84E"/>
 <path d="m410 193.5 4.6 9.8c-3.5 2.4-6.3 5.9-7.9 10.2-2 5.5-1.6 11.2 0.7 16.1s6.4 8.9 11.9 10.9c4.2 1.5 8.7 1.7 12.8 0.5l4.6 9.9 6.4-3-4.6-10c3.5-2.4 6.3-6 7.8-10.1l-0.2-0.1-6.4-2.3c-1.3 3.5-3.9 6.3-7.2 7.9-3.4 1.6-7.2 1.7-10.7 0.5-7.3-2.6-11-10.7-8.4-18 1.3-3.6 4-6.4 7.3-7.9s7.1-1.8 10.7-0.5l2.3-6.4 0.1-0.2c-4-1.5-8.1-1.6-12-0.7-0.3 0.1-0.5 0.1-0.8 0.2l-4.6-9.8-6.4 3z" fill="#fff"/>
 <path d="m793.8 259.8c22.091 0 40-17.909 40-40 0-22.092-17.909-40-40-40-22.092 0-40 17.908-40 40 0 22.091 17.908 40 40 40z" fill="#2970FF"/>
 <polygon transform="matrix(.047697 0 0 .047697 771.82 194.57)" points="0 68.5 388.92 532 0 995.5 34.58 1024.5 418.37 567.11 837.15 1064 871.73 1035 447.83 532 871.73 29.01 837.15 0 418.37 496.89 34.58 39.49" fill="#fff"/>
 <polygon transform="matrix(.047697 0 0 .047697 771.82 194.57)" points="525.57 567.11 901.47 1013.2 936.04 984.21 555.03 532 936.04 79.79 901.47 50.78 525.57 496.89 496.11 532" fill="#c1272d"/>
</svg>
