<svg version="1.1" viewBox="0 0 1160 800" xmlns="http://www.w3.org/2000/svg">
 <defs>
  <style>.cls-1{fill:#fff;}.cls-2{fill:#091440;}.cls-3{fill:#2f74fb;}.cls-4{fill:#c4cbd2;}.cls-5{fill:#ffc84e;}.cls-6{fill:#ffe4a7;}</style>
 </defs>
 <g>
  <g id="s1_-_f4_-_voting">
   <rect class="cls-1" width="1160" height="800"/>
   <rect id="BG" class="cls-2" x="45.6" y="98.91" width="1029.4" height="655.67" rx="14"/>
   <polygon class="cls-3" points="85.77 290.39 112.44 303.73 112.44 290.39 99.11 283.73 112.44 277.06 112.44 263.73 85.77 277.06"/>
   <polygon class="cls-3" points="85.77 349.56 112.44 362.9 112.44 349.56 99.11 342.9 112.44 336.23 112.44 322.9 85.77 336.23"/>
   <polygon class="cls-3" points="85.77 527.08 112.44 540.41 112.44 527.08 99.11 520.41 112.44 513.74 112.44 500.41 85.77 513.74"/>
   <polygon class="cls-3" points="998.38 572.91 1011.7 579.58 998.38 586.25 998.38 599.58 1025 586.25 1025 572.91 998.38 559.58"/>
   <polygon class="cls-1" points="998.38 691.25 1011.7 697.92 998.38 704.59 998.38 717.92 1025 704.59 1025 691.25 998.38 677.92"/>
   <rect class="cls-3" x="125.77" y="513.74" width="859.28" height="13.33"/>
   <rect class="cls-3" x="125.77" y="572.91" width="859.28" height="13.33"/>
   <rect class="cls-3" x="125.77" y="632.08" width="859.28" height="13.33"/>
   <rect class="cls-3" x="125.77" y="691.25" width="859.28" height="13.33"/>
   <rect class="cls-3" x="125.77" y="395.4" width="781.41" height="13.33"/>
   <rect class="cls-3" x="125.77" y="454.57" width="66.67" height="13.33"/>
   <rect class="cls-3" x="225.55" y="454.57" width="66.67" height="13.33"/>
   <rect class="cls-3" x="125.77" y="336.23" width="859.28" height="13.33"/>
   <polygon class="cls-1" points="85.77 172.05 112.44 185.39 112.44 172.06 99.11 165.39 112.44 158.72 112.44 145.39 85.77 158.72"/>
   <polygon class="cls-3" points="998.38 126.22 1011.7 132.88 998.38 139.55 998.38 152.88 1025 139.55 1025 126.22 998.38 112.88"/>
   <rect class="cls-3" x="125.77" y="98.91" width="859.28" height="13.33"/>
   <rect class="cls-3" x="125.77" y="158.72" width="859.28" height="13.33"/>
   <rect class="cls-3" x="125.77" y="217.89" width="27.73" height="13.33"/>
   <rect class="cls-3" x="181.24" y="217.89" width="49.54" height="13.33"/>
   <rect class="cls-3" x="256.45" y="217.89" width="728.6" height="13.33"/>
   <rect class="cls-3" x="125.77" y="277.06" width="55.47" height="13.33"/>
   <rect class="cls-3" x="220.21" y="277.06" width="55.47" height="13.33"/>
   <rect class="cls-3" x="321.31" y="277.06" width="55.47" height="13.33"/>
   <path class="cls-1" d="m206.32 560.34 9.42-9.42-7.48-7.48a40.48 40.48 0 0 0 6.74-16.44h10.54v-13.3h-10.53a40.61 40.61 0 0 0-6.77-16.41l7.5-7.49-9.42-9.42-7.5 7.5a37.91 37.91 0 0 0-16.48-6.83v-10.59h-13.34v10.52a40.56 40.56 0 0 0-16.41 6.74l-7.33-7.33-9.42 9.42 7.33 7.33a38.12 38.12 0 0 0-6.83 16.49h-10.6v13.32h10.6a38.17 38.17 0 0 0 6.83 16.49l-7.32 7.31 9.42 9.42 7.31-7.32a40.65 40.65 0 0 0 16.42 6.93v10.55h13.3l0.05-10.62a38 38 0 0 0 16.48-6.84zm-49.47-21.11a26.58 26.58 0 0 1 32.36-41.64l-18.3 18.3 9.42 9.42 18.3-18.3a26.6 26.6 0 0 1-41.78 32.22z"/>
   <path class="cls-1" d="M189.56,274.36h13.32V263.79A40.43,40.43,0,0,0,219.24,257l7.45,7.48,9.4-9.42-7.49-7.42a40.36,40.36,0,0,0,6.82-16.38H246V217.9h-10.6a38.13,38.13,0,0,0-6.82-16.49l7.47-7.5-9.42-9.43L219.24,192a40.43,40.43,0,0,0-16.36-6.83V174.75H189.56v10.37a38.12,38.12,0,0,0-16.5,6.82l-7.51-7.47-9.43,9.42,7.47,7.52a38.15,38.15,0,0,0-6.84,16.49H146.41v13.32h10.34a40.51,40.51,0,0,0,6.83,16.38l-7.48,7.45,9.42,9.4,7.54-7.48a38.12,38.12,0,0,0,16.5,6.82ZM169.5,224.45a26.58,26.58,0,0,1,52.33-6.55H196v13.32h25.88a26.6,26.6,0,0,1-52.33-6.77Z"/>
   <path class="cls-1" d="M427.7,704.58V691.26H417.13a40.47,40.47,0,0,0-6.83-16.37l7.48-7.44-9.42-9.4-7.42,7.48a40.5,40.5,0,0,0-16.38-6.82v-10.6H371.24v10.6a38.09,38.09,0,0,0-16.49,6.83l-7.5-7.47-9.43,9.41,7.47,7.41a40.47,40.47,0,0,0-6.83,16.37H266v13.32h72.48a38.17,38.17,0,0,0,6.82,16.5l-7.47,7.5,9.42,9.44,7.52-7.47a38.09,38.09,0,0,0,16.49,6.83v10.35h13.32V737.38a40.5,40.5,0,0,0,16.38-6.82l7.45,7.47,9.4-9.42-7.48-7.53a38.17,38.17,0,0,0,6.82-16.5Zm-49.91,20a26.58,26.58,0,0,1-6.55-52.32v25.88h13.32V672.31a26.59,26.59,0,0,1-6.77,52.32Z"/>
   <path class="cls-1" d="M755.17,762l14.59-14.59-3.67-5.06a72.12,72.12,0,0,1-13-31.53l-1-6.08-79.12-.09V691.23l79.12,0,1-6.1a73.21,73.21,0,0,1,13.07-31.53l3.66-5.06-14.62-14.63,9.41-9.42L779.15,639l5-3.54a77.33,77.33,0,0,1,31.44-12.93l6.14-1-.09-20.94H835l0,21.1,6.1,1a72,72,0,0,1,31.52,13l5.05,3.66L944,573.12l9.41,9.42-66.25,66.24,3.55,5a77.34,77.34,0,0,1,13,31.44l1,6.13,80.32-.08v13.24l-80.33,0-1,6.12a77.2,77.2,0,0,1-12.94,31.43l-3.54,5L902.1,762l-9.42,9.42-14.94-14.94-5,3.66a73.19,73.19,0,0,1-31.53,13.08l-6.09,1,0,21.17H821.77l-.06-21-6.11-1a77.22,77.22,0,0,1-31.45-13l-5-3.54-14.53,14.53ZM860.51,643.73a63,63,0,1,0,22.35,22.38l-4.78-8.22L833,703l-9.42-9.42,45-45Z"/>
   <rect class="cls-4" x="249.06" y="45.41" width="865.99" height="574.26" rx="11.34"/>
   <path class="cls-5" d="M695.34,159.1V506H667.46c-73.12,0-132.4-77.66-132.4-173.45S594.34,159.1,667.46,159.1Z"/>
   <path class="cls-6" d="m544.5 392.94c1.2 4.21 2.53 8.33 4 12.39h148.02v-12.39z"/>
   <path class="cls-6" d="M557.62,427q3.18,6.39,6.77,12.39H696.52V427Z"/>
   <path class="cls-6" d="M537.75,358.87c.49,4.19,1.13,8.3,1.84,12.39H696.52V358.87Z"/>
   <path class="cls-6" d="m579.75 461.08a148.77 148.77 0 0 0 11.75 12.39h105v-12.39z"/>
   <path class="cls-6" d="M696.52,499.79V487.4H609a114.55,114.55,0,0,0,24.55,12.39Z"/>
   <path class="cls-6" d="M540.14,290.73c-.77,4.07-1.42,8.21-2,12.39H696.52V290.73Z"/>
   <path class="cls-6" d="M536.39,324.8c-.09,2.57-.15,5.15-.15,7.74,0,1.56.06,3.1.09,4.65H696.52V324.8Z"/>
   <path class="cls-6" d="M643.79,162.2A110.21,110.21,0,0,0,614,174.59h82.55V162.2Z"/>
   <path class="cls-6" d="m594.85 188.53a143.09 143.09 0 0 0-12.37 12.38h114v-12.38z"/>
   <path class="cls-6" d="m566.25 222.59q-3.75 6-7.08 12.39h137.35v-12.39z"/>
   <path class="cls-6" d="m549.56 256.66c-1.5 4-2.86 8.18-4.13 12.39h151.09v-12.39z"/>
   <ellipse class="cls-5" cx="696.11" cy="332.54" rx="132.4" ry="173.44"/>
   <ellipse class="cls-1" cx="696.11" cy="332.54" rx="102.98" ry="144.02"/>
   <path d="m741.09 268.5-52.889 62.753-48.471-57.766-4.3673 3.6647 49.117 58.536-49.117 58.536 4.3673 3.6647 48.471-57.766 52.889 62.753 4.3661-3.6634-53.534-63.524 53.534-63.524zm8.1224 6.4129-47.474 56.34-3.7207 4.4348 3.7207 4.4348 47.474 56.34 4.366-3.6634-48.119-57.111 48.119-57.111z" stroke-width=".12677"/>
  </g>
 </g>
</svg>
