<svg version="1.1" viewBox="0 0 1160 800" xmlns="http://www.w3.org/2000/svg">
 <defs>
  <style>.cls-1{fill:#fff;}.cls-2{fill:#c4cbd2;}.cls-3{fill:#ffc84e;}.cls-4{fill:#ffe4a7;}.cls-5{fill:#091440;}</style>
 </defs>
 <g>
  <g id="s1_-_f4_-_voting">
   <rect class="cls-1" width="1160" height="800"/>
   <rect id="BG" class="cls-2" x="45.6" y="45.41" width="1069.4" height="709.17" rx="14"/>
   <path class="cls-3" d="M596.73,185.81V614.19H562.31C472,614.19,398.8,518.29,398.8,400S472,185.81,562.31,185.81Z"/>
   <path class="cls-4" d="m410.46 474.58q2.22 7.82 4.89 15.3h182.84v-15.3z"/>
   <path class="cls-4" d="m426.66 516.66q3.93 7.89 8.36 15.3h163.17v-15.3z"/>
   <path class="cls-4" d="M402.13,432.51c.6,5.17,1.39,10.26,2.27,15.3H598.19v-15.3Z"/>
   <path class="cls-4" d="M454,558.73A183.52,183.52,0,0,0,468.5,574H598.19v-15.3Z"/>
   <path class="cls-4" d="m598.19 606.54v-15.3h-108a141.65 141.65 0 0 0 30.31 15.3z"/>
   <path class="cls-4" d="M405.07,348.37c-.95,5-1.75,10.13-2.42,15.29H598.19V348.37Z"/>
   <path class="cls-4" d="M400.44,390.44c-.11,3.17-.18,6.35-.18,9.56,0,1.92.07,3.82.11,5.74H598.19v-15.3Z"/>
   <path class="cls-4" d="m533.07 189.63a136.44 136.44 0 0 0-36.82 15.31h101.94v-15.31z"/>
   <path class="cls-4" d="m472.64 222.15a176.52 176.52 0 0 0-15.28 15.3h140.83v-15.3z"/>
   <path class="cls-4" d="m437.32 264.22q-4.63 7.38-8.74 15.3h169.61v-15.3z"/>
   <path class="cls-4" d="m416.71 306.29c-1.85 5-3.54 10.11-5.1 15.3h186.58v-15.3z"/>
   <ellipse class="cls-3" cx="597.69" cy="400" rx="163.51" ry="214.19"/>
   <ellipse class="cls-1" cx="597.69" cy="400" rx="127.18" ry="177.85"/>
   <path d="m667.79 302.48-78.959 93.684-72.363-86.239-6.52 5.471 73.328 87.389-73.328 87.389 6.52 5.471 72.363-86.239 78.959 93.684 6.5181-5.4692-79.922-94.836 79.922-94.836zm12.126 9.5739-70.875 84.11-5.5547 6.6207 5.5547 6.6208 70.875 84.11 6.5181-5.4692-71.838-85.262 71.838-85.262z" stroke-width=".18926"/>
  </g>
 </g>
 <g transform="matrix(.023623 0 0 .023623 2.0244 -.23623)">
  <polygon class="cls-1" points="626.68 540 1006.3 89.49 971.82 60.59 597.33 505.02 567.98 540 597.33 574.98 971.82 1019.4 1006.3 990.51" fill="#c1272d"/>
 </g>
</svg>
